<?xml version="1.0" encoding="UTF-8" standalone="no"?>
<!-- Created with Inkscape (http://www.inkscape.org/) by Marsupilami -->

<svg
   xmlns:osb="http://www.openswatchbook.org/uri/2009/osb"
   xmlns:dc="http://purl.org/dc/elements/1.1/"
   xmlns:cc="http://creativecommons.org/ns#"
   xmlns:rdf="http://www.w3.org/1999/02/22-rdf-syntax-ns#"
   xmlns:svg="http://www.w3.org/2000/svg"
   xmlns="http://www.w3.org/2000/svg"
   xmlns:sodipodi="http://sodipodi.sourceforge.net/DTD/sodipodi-0.dtd"
   xmlns:inkscape="http://www.inkscape.org/namespaces/inkscape"
   version="1.0"
   width="757"
   height="768"
   viewBox="0 0 131.30544 133.29994"
   id="svg2646"
   inkscape:version="0.48.4 r9939"
   sodipodi:docname="veganismus_logo-3.svg">
  <metadata
     id="metadata3219">
    <rdf:RDF>
      <cc:Work
         rdf:about="">
        <dc:format>image/svg+xml</dc:format>
        <dc:type
           rdf:resource="http://purl.org/dc/dcmitype/StillImage" />
        <dc:title></dc:title>
      </cc:Work>
    </rdf:RDF>
  </metadata>
  <sodipodi:namedview
     pagecolor="#ffffff"
     bordercolor="#666666"
     borderopacity="1"
     objecttolerance="10"
     gridtolerance="10"
     guidetolerance="10"
     inkscape:pageopacity="0"
     inkscape:pageshadow="2"
     inkscape:window-width="1630"
     inkscape:window-height="1063"
     id="namedview3217"
     showgrid="true"
     showguides="false"
     inkscape:snap-global="false"
     inkscape:zoom="2"
     inkscape:cx="406.23096"
     inkscape:cy="235.8036"
     inkscape:window-x="1600"
     inkscape:window-y="15"
     inkscape:window-maximized="0"
     inkscape:current-layer="svg2646">
    <inkscape:grid
       type="xygrid"
       id="grid5465" />
  </sodipodi:namedview>
  <defs
     id="defs2648">
    <linearGradient
       id="linearGradient5317"
       osb:paint="solid">
      <stop
         style="stop-color:#000000;stop-opacity:1;"
         offset="0"
         id="stop5319" />
    </linearGradient>
    <linearGradient
       id="linearGradient3997"
       osb:paint="gradient">
      <stop
         style="stop-color:#000000;stop-opacity:1;"
         offset="0"
         id="stop3999" />
      <stop
         style="stop-color:#000000;stop-opacity:0;"
         offset="1"
         id="stop4001" />
    </linearGradient>
  </defs>
  <g
     transform="translate(-310.62705,-461.67857)"
     id="layer1" />
  <path
     style="fill:#008000;stroke:none;stroke-width:0.99999994000000003;stroke-linecap:butt;stroke-linejoin:miter;stroke-miterlimit:4;stroke-opacity:1;stroke-dasharray:none;fill-opacity:1"
     d="M 380 44.96875 C 189.58052 44.96875 35.21875 199.33053 35.21875 389.75 C 35.21875 437.35487 44.865424 482.71925 62.3125 523.96875 C 79.759567 565.21826 105.02185 602.36555 136.21875 633.5625 C 167.41565 664.75933 204.56301 689.9903 245.8125 707.4375 C 266.43726 716.16107 288.08659 722.93846 310.53125 727.53125 C 321.75358 729.8277 333.15934 731.57282 344.75 732.75 C 356.34066 733.92724 368.09879 734.53125 380 734.53125 C 385.95061 734.53125 391.87341 734.39104 397.75 734.09375 C 403.62658 733.79588 409.48589 733.33836 415.28125 732.75 C 426.87191 731.57288 438.27768 729.8277 449.5 727.53125 C 471.94469 722.9384 493.59396 716.16107 514.21875 707.4375 C 555.46822 689.99041 592.61561 664.75933 623.8125 633.5625 C 686.20628 571.16863 724.8125 484.95973 724.8125 389.75 C 724.8125 199.33053 570.41948 44.96875 380 44.96875 z M 380.46875 61.34375 C 562.09561 61.34375 709.3125 208.56063 709.3125 390.1875 C 709.3125 481.00092 672.51276 563.23722 613 622.75 C 583.24361 652.50639 547.81356 676.5773 508.46875 693.21875 C 488.79634 701.53948 468.15829 707.99422 446.75 712.375 C 436.04586 714.56538 425.14921 716.25226 414.09375 717.375 C 408.64823 717.92801 403.14629 718.34156 397.625 718.625 C 398.30315 700.77474 400.04901 681.75612 402.84375 665.53125 C 405.45079 650.70747 408.99643 636.09093 413.46875 621.59375 C 417.6962 607.81935 422.68133 594.26673 428.78125 581.4375 C 433.57764 570.94337 439.14106 561.03903 445.6875 550.84375 C 449.25959 545.06157 453.23405 539.30091 459.21875 536.25 C 461.28565 535.09633 463.59923 534.23287 465.875 533.90625 C 468.91415 533.49604 472.00174 533.97559 475.0625 534.09375 C 478.44014 534.19803 481.53825 533.71554 484.9375 533.1875 C 494.62392 531.91572 504.29664 528.71969 512.125 522.9375 C 519.63648 517.78078 525.73577 510.59294 529.4375 502.59375 C 533.0312 495.15055 534.53934 486.92995 535.1875 478.625 C 535.9653 471.05676 535.88949 463.36662 537.71875 456.125 C 539.69924 446.7637 544.71261 438.07254 549.0625 429.46875 C 552.11606 423.47804 554.95082 417.45944 557.6875 411.46875 C 557.7739 411.36453 557.6875 411.41674 557.6875 411.3125 C 557.81713 411.31249 557.875 411.04869 557.875 410.9375 C 557.875 410.9375 557.81536 410.85425 557.6875 410.75 L 557.6875 410.59375 C 557.6011 410.59375 557.62796 410.40625 557.5 410.40625 C 557.5 410.29505 557.34375 410.31599 557.34375 410.21875 L 557.15625 410.21875 C 557.03411 410.10755 557.08341 410.03125 556.96875 410.03125 L 556.78125 410.03125 C 556.66602 410.14245 556.72526 410.21875 556.625 410.21875 C 556.51726 410.31605 556.35774 410.40625 556.25 410.40625 C 556.14226 410.51053 556.17026 410.64572 556.0625 410.75 C 555.17668 411.577 554.17415 412.36406 553.1875 413.09375 C 549.15449 416.56865 544.75087 419.31045 540.0625 421.9375 C 535.2589 424.46027 530.59643 427.00919 525.46875 428.59375 C 517.72681 431.31804 509.25083 431.74257 500.96875 432.375 C 488.22155 433.20897 475.62835 434.62527 463.875 438.84375 C 452.64738 442.50626 441.93639 448.60108 434 457.21875 C 428.4474 462.98705 424.18472 470.00815 422.125 477.5625 C 419.51074 485.88133 419.56953 495.04548 421.21875 503.65625 C 421.74448 507.23539 422.75447 510.66414 424.28125 513.9375 C 425.47674 516.77992 426.95894 519.40426 428.59375 522.03125 C 428.71618 522.14244 428.86072 522.16649 428.96875 522.375 C 428.96873 522.37499 428.86072 522.5625 428.96875 522.5625 L 429.125 522.5625 C 429.2186 522.6737 429.19725 522.74994 429.3125 522.75 C 429.43493 522.75 429.40636 522.74994 429.5 522.75 C 429.60083 522.86119 429.57225 522.74994 429.6875 522.75 C 429.80993 522.75 429.93762 522.74994 430.03125 522.75 C 430.14648 522.75 430.10351 522.5625 430.21875 522.5625 L 430.21875 522.375 C 430.31235 522.37499 430.40625 522.316 430.40625 522.21875 C 430.65831 521.80174 430.69984 521.36142 430.9375 520.9375 C 431.36961 519.35989 431.94289 517.78254 432.375 516.09375 C 433.68572 511.59033 434.51424 506.82632 436.15625 502.40625 C 438.23756 496.20014 441.66965 490.60462 446.25 485.46875 C 451.26244 479.5545 457.64569 474.4605 464.0625 471.625 C 469.84554 468.99804 475.64283 468.15801 483.5 465.84375 C 486.66158 464.89858 490.12484 463.70001 491.78125 465.5 C 492.64546 466.44516 493.03319 468.33913 492.6875 469.8125 C 492.25539 471.49434 490.6784 472.53745 489.28125 473.59375 C 486.01162 476.21384 483.30626 478.90426 480.46875 481.53125 C 471.53649 490.14928 463.42932 500.28068 455.59375 510.15625 C 444.14287 524.4588 432.94788 538.2905 422.84375 553.53125 C 414.87854 565.1999 407.70614 577.64012 401.9375 589.71875 C 398.12773 597.49549 395.00344 605.10791 390.4375 613.84375 C 388.91791 616.88078 387.14281 620.02018 384.3125 620.875 C 383.11699 621.28522 381.76971 621.0625 380.34375 621.0625 C 380.45178 614.64097 380.48753 608.28611 380.15625 601.96875 C 379.61611 592.82983 378.09623 583.82983 376.375 574.78125 C 374.08482 562.79987 371.50531 550.76263 370.09375 538.78125 C 368.56696 527.20991 368.1579 515.64759 369.375 504.1875 C 370.57049 491.05944 373.76509 478.19704 377.8125 465.6875 C 381.62225 453.90766 386.1438 442.52597 391.15625 431.28125 C 395.95264 420.14777 401.42866 409.03289 405.5625 397.78125 C 410.0276 386.11956 413.33124 374.16942 414.75 361.4375 C 416.27677 350.38738 416.27317 338.84455 415.625 328.65625 C 415.29372 321.915 414.44727 316.00292 414.5625 307.59375 C 414.56249 305.69645 414.7973 303.64291 416 302.90625 C 416.86421 302.28073 418.30463 302.40601 419.59375 302.71875 C 420.90447 303.03148 422.17424 303.45775 423.03125 304.1875 C 424.89651 305.6539 425.67963 308.12348 426.96875 310.125 C 428.07062 311.69564 429.27582 313.00599 430.59375 314.25 C 430.68015 314.3612 431.03858 314.52078 431.125 314.625 L 431.125 314.78125 L 431.46875 314.78125 L 431.65625 314.78125 L 431.84375 314.78125 L 432.03125 314.78125 C 432.13927 314.66308 432.07946 314.72925 432.1875 314.625 L 432.375 314.4375 C 433.25361 313.49234 434.16421 312.52867 434.71875 311.375 C 435.82062 308.95652 435.16358 305.93615 435.25 303.09375 C 435.1636 300.04974 435.98943 297.15483 437.0625 294.4375 C 437.94111 292.01199 438.94196 289.85598 440.46875 287.4375 C 441.44098 285.96413 442.56697 284.2085 444.09375 284 C 445.19561 283.79846 446.34746 284.07247 447.3125 284.71875 C 449.50904 285.97671 450.74832 288.45319 451.28125 290.65625 C 451.71336 292.65777 451.75539 294.73467 452.1875 296.625 C 452.6196 299.9887 453.6723 303.18164 454.875 306.34375 C 454.98303 306.55225 455.14198 306.85399 455.25 307.0625 L 455.25 307.21875 C 455.24999 307.32303 455.4375 307.295 455.4375 307.40625 L 455.59375 307.40625 L 455.59375 307.59375 L 455.96875 307.59375 L 456.15625 307.59375 C 456.24265 307.59375 456.3125 307.51749 456.3125 307.40625 C 456.42053 307.40624 456.5 307.50355 456.5 307.40625 C 456.5792 307.40624 456.6875 307.21875 456.6875 307.21875 L 456.875 307.21875 C 456.98303 307.0103 456.94481 306.896 457.03125 306.6875 C 457.70101 305.73542 458.31081 304.48694 458.84375 303.4375 C 459.94561 301.33175 460.67592 299.17878 461 296.96875 C 461.75617 293.27843 461.61266 289.68335 461.375 286 C 461.15894 281.1699 460.63562 276.23925 463.15625 272.125 C 464.02045 270.67247 465.25447 269.17772 466.78125 268.34375 C 469.72678 266.34222 473.91864 266.51024 477.75 266.71875 C 482.2079 266.81605 486.45528 266.93422 490.71875 266.71875 C 494.52849 266.61452 498.44025 266.22951 502.25 265.8125 C 502.68211 265.81251 503.06789 265.76749 503.5 265.65625 L 503.6875 265.65625 C 503.68749 265.65623 503.7357 265.65625 503.84375 265.65625 C 503.95178 265.55196 504.11072 265.39941 504.21875 265.28125 L 504.21875 265.09375 L 504.21875 264.9375 L 504.21875 264.75 L 504.21875 264.5625 L 504.21875 264.375 C 503.89466 264.04867 503.61498 263.79543 503.3125 263.46875 C 502.43387 262.41238 501.34467 261.27838 500.25 260.4375 C 498.96086 259.38115 497.54375 258.46944 496.125 257.53125 C 493.20106 255.74519 490.43303 253.84672 488.90625 249.96875 C 487.94119 247.74484 487.3 244.63958 488.71875 243.6875 C 489.58296 242.95078 491.34822 243.125 492.875 243.125 C 497.11685 243.25008 500.43755 242.83017 504.03125 242.40625 C 509.25975 241.88501 515.06971 241.6052 520.40625 240.25 C 523.67587 239.51333 526.79995 238.35506 529.96875 237.1875 C 530.27122 237.0763 530.53652 236.76745 530.875 236.65625 L 531.03125 236.65625 C 531.14648 236.65626 531.11849 236.46875 531.21875 236.46875 C 531.21875 236.36452 531.40625 236.3925 531.40625 236.28125 L 531.40625 236.125 C 531.51399 236.02077 531.40625 236.04865 531.40625 235.9375 L 531.40625 235.5625 C 531.40625 235.45828 531.3265 235.51049 531.21875 235.40625 C 531.10352 235.28808 530.98274 235.12165 530.875 235.03125 C 529.13216 233.64827 527.50711 232.44547 525.65625 231.0625 C 524.02144 229.68644 522.14909 228.44881 520.40625 227.28125 C 516.48847 224.86277 512.51962 223.37107 509.25 219.375 C 507.72321 217.58198 506.37332 215.28597 506.90625 213.625 C 507.33836 212.03352 509.69272 210.78891 511.78125 209.84375 C 517.42026 207.21669 521.80906 205.62008 526.375 203 C 529.9903 200.99156 533.72963 198.31501 536.4375 195.0625 C 538.39639 192.85251 539.81427 190.55395 541.125 188.03125 C 541.23274 187.82274 541.44769 187.47596 541.65625 187.15625 L 541.65625 186.96875 C 541.77148 186.96876 541.65625 186.70494 541.65625 186.59375 L 541.65625 186.4375 L 541.5 186.4375 C 541.39226 186.32631 541.42026 186.16673 541.3125 186.0625 C 541.3125 186.06251 541.23276 186.16673 541.125 186.0625 L 540.78125 186.0625 L 540.59375 186.0625 C 538.31077 185.95822 536.45788 185.91627 533.75 186.4375 C 530.78286 186.85446 526.88582 188.08095 526 186.59375 C 525.14299 185.44009 526.25641 182.5745 527.4375 180.46875 C 528.6402 178.27958 529.87946 176.76478 531.40625 175.625 C 534.56784 172.86596 539.39202 171.65474 543.09375 169.125 C 545.90965 167.44318 548.32505 165.08868 550.5 162.65625 C 550.71605 162.35741 550.82269 162.07661 551.03125 161.75 C 551.14648 161.74999 551.21875 161.75 551.21875 161.75 C 551.31957 161.64577 551.375 161.53133 551.375 161.40625 L 551.375 161.21875 L 551.375 161.03125 C 551.375 160.94085 551.21875 160.9691 551.21875 160.84375 C 551.21875 160.75345 551.03125 160.60422 551.03125 160.5 C 550.92351 160.49999 550.944 160.60422 550.84375 160.5 C 550.73601 160.49999 550.76401 160.43064 550.65625 160.3125 C 550.44019 160.31248 550.34048 160.4028 550.125 160.3125 C 547.62598 159.78434 545.16955 159.34034 542.5625 159.25 C 537.67967 158.82608 532.44108 159.47155 527.96875 160.3125 C 524.26703 160.94492 521.00614 161.78739 516.65625 162.84375 C 513.27861 163.67075 509.31962 164.73408 507.46875 162.84375 C 506.17962 161.69705 505.92323 159.41823 506.03125 157.4375 C 506.13928 154.49081 507.40082 151.98788 508.71875 149.6875 C 511.31859 145.05201 514.20545 140.53126 516.8125 136 C 518.0152 134.10967 519.09746 132.26542 520.0625 130.25 C 520.38687 129.74265 520.62277 129.32677 520.96875 128.8125 C 521.05515 128.70828 520.96875 128.54173 520.96875 128.4375 L 520.96875 128.28125 L 520.96875 128.09375 C 520.96875 127.98947 520.78125 128.01749 520.78125 127.90625 C 520.78125 127.90625 520.70151 127.71875 520.59375 127.71875 L 520.40625 127.5625 L 520.25 127.5625 C 520.14226 127.4513 520.0625 127.4513 520.0625 127.5625 L 519.875 127.5625 L 519.6875 127.5625 L 519.6875 127.71875 C 519.14765 128.03148 518.44638 128.29141 517.90625 128.625 C 515.50085 129.89684 513.266 131.06508 510.875 132.21875 C 507.28129 133.90057 503.52851 135.22133 499.71875 136.375 C 495.88738 137.52169 491.99725 138.38806 488.1875 139.4375 C 488.29552 138.60354 488.45447 137.73331 488.5625 136.90625 C 488.80016 134.89782 489.16434 132.85216 489.8125 130.96875 C 490.77753 127.81354 492.54111 124.89056 494.5 122.6875 C 496.00516 120.79019 497.60167 119.56454 499.90625 116.9375 C 500.98651 115.67269 502.28744 114.01427 501.53125 113.5 C 501.18557 113.08299 500.05171 113.15625 499.1875 113.15625 C 497.53107 113.3647 496.60895 113.86415 495.40625 114.40625 C 491.48846 116.39389 487.12419 118.44258 482.96875 120.875 C 477.52417 124.13443 472.40443 127.76468 467.5 131.34375 C 462.58836 134.91596 458.0536 138.73937 453.25 143.5625 C 450.65013 146.29378 447.8437 149.36476 444.25 149.15625 C 442.39913 149.05202 440.2054 147.93516 439.21875 146.46875 C 437.60553 144.57146 437.98842 141.68949 438.3125 139.0625 C 438.74461 135.48337 439.20986 132.5962 439.75 129.34375 C 440.1749 126.40398 440.81351 123.28347 441.5625 120.34375 L 441.5625 120.15625 C 441.56248 120.05895 441.5625 120 441.5625 120 C 441.56248 119.89572 441.5625 119.8125 441.5625 119.8125 C 441.56248 119.70827 441.5625 119.4375 441.5625 119.4375 C 441.56248 119.3402 441.375 119.5487 441.375 119.4375 L 441.1875 119.4375 C 441.07947 119.4375 441.1393 119.3855 441.03125 119.28125 L 440.84375 119.28125 C 440.73572 119.28125 440.57677 119.33325 440.46875 119.4375 L 440.3125 119.4375 C 440.07484 119.5487 439.85802 119.51376 439.75 119.625 C 438.56169 120.46594 437.35895 121.46465 436.15625 122.3125 C 432.56254 124.93949 429.36695 127.92088 426.96875 131.5 C 425.11788 134.32852 423.62942 137.39009 421.5625 140.34375 C 420.15094 142.33139 418.3982 144.47876 416 145 C 414.58844 145.3197 413.03925 145.21935 411.84375 144.46875 C 410.53301 143.74597 409.53024 142.23712 408.78125 140.875 C 406.82235 137.19165 404.66698 134.0889 401.9375 131.34375 C 398.66787 127.76469 394.54202 124.89056 390.0625 122.6875 C 387.78672 121.41571 385.50172 120.37569 383.21875 119.4375 C 382.98109 119.3263 382.78833 119.4375 382.6875 119.4375 L 382.5 119.4375 C 382.49998 119.33327 382.43495 119.28125 382.3125 119.28125 C 382.20447 119.28125 382.26429 119.4375 382.15625 119.4375 C 382.05542 119.4375 381.88927 119.33327 381.78125 119.4375 C 381.67322 119.5348 381.59375 119.51376 381.59375 119.625 C 381.48572 119.72929 381.59375 119.70825 381.59375 119.8125 L 381.59375 120.15625 C 381.59374 120.35778 381.48572 120.51025 381.59375 120.71875 C 381.8098 123.24152 382.09812 125.91474 381.78125 128.4375 C 381.43556 132.44747 379.95797 136.10482 379.09375 139.78125 C 378.09269 143.77042 377.77409 147.58342 376.03125 152.03125 C 375.15982 153.91461 374.18034 155.97899 372.4375 156.1875 C 371.6813 156.38206 370.74886 156.20825 369.90625 156 C 367.39281 155.36756 365.33132 154.64328 363.25 153.46875 C 359.77872 151.80082 356.62584 149.1477 353.6875 146.625 C 351.7286 145.03347 349.80277 143.46307 347.9375 141.78125 C 347.82227 141.67703 347.5625 141.69799 347.5625 141.59375 C 347.56249 141.48255 347.40625 141.40625 347.40625 141.40625 C 347.29823 141.31595 347.21875 141.40625 347.21875 141.40625 L 347.03125 141.40625 L 346.84375 141.40625 C 346.72132 141.49655 346.5 141.40625 346.5 141.40625 C 346.39197 141.51745 346.42055 141.67703 346.3125 141.78125 L 346.3125 141.9375 L 346.3125 142.125 C 346.20446 142.43774 346.125 142.69766 346.125 143.03125 C 345.90894 144.17801 345.86073 145.30817 345.96875 146.46875 C 345.96874 148.98455 346.55618 151.6648 347.21875 154.1875 C 347.8741 157.24539 348.52855 160.23384 348.3125 163.1875 C 347.98122 166.21761 346.70977 169.09153 345.40625 172.03125 C 342.90001 171.3015 340.42057 170.60529 338.5625 169.125 C 336.27232 167.44318 334.78487 164.67568 333.90625 161.9375 C 333.15005 159.63016 332.70641 157.07123 332.46875 154.75 C 332.36072 154.54846 332.46875 154.40989 332.46875 154.1875 C 332.46874 154.07631 332.36769 154.09034 332.28125 154 C 332.28123 153.8888 332.09375 153.9411 332.09375 153.84375 C 332.09374 153.84376 332.0143 153.65625 331.90625 153.65625 L 331.90625 153.46875 C 331.79823 153.46876 331.5625 153.46875 331.5625 153.46875 C 331.45448 153.46876 331.46864 153.46875 331.375 153.46875 C 331.37499 153.46876 331.1875 153.5659 331.1875 153.65625 L 331 153.65625 C 330.99999 153.65624 330.9446 153.84375 330.84375 153.84375 C 330.51967 154.05226 330.28319 153.97208 329.9375 154.1875 C 328.20905 155.57054 327.42234 157.6755 326.875 159.78125 C 326.22683 162.29705 325.94908 164.93219 325.625 167.34375 C 325.17128 170.39466 324.71247 173.27889 323.625 176.34375 C 322.8544 178.65103 321.62234 180.83586 319.65625 182.09375 C 318.36711 182.92081 316.86333 183.53125 315.34375 183.53125 C 312.71508 183.64245 310.35975 182.34117 307.96875 181.1875 C 304.15898 179.19986 300.46959 177.20353 297.53125 174.375 C 294.93141 172.06767 292.57412 169.27299 290.5 166.4375 C 290.39198 166.31242 290.37231 165.99659 290.15625 165.90625 C 290.15627 165.90624 290.07679 165.83689 289.96875 165.71875 L 289.96875 165.53125 L 289.78125 165.53125 L 289.4375 165.53125 C 289.43751 165.53125 289.37994 165.42006 289.25 165.53125 C 289.25001 165.53125 289.0625 165.6284 289.0625 165.71875 C 288.9689 165.71875 288.875 165.78811 288.875 165.90625 C 288.87501 165.90624 288.71875 166.0034 288.71875 166.09375 L 288.71875 166.25 L 288.71875 166.8125 C 288.0562 170.16225 287.58128 173.30294 287.25 176.6875 C 286.92592 180.44729 286.81789 184.34093 287.25 188.03125 C 287.58128 193.48675 288.99743 198.29033 288.875 204.59375 C 288.75977 206.60915 288.56073 208.86027 287.25 210 C 286.16974 211.04945 284.06961 211.33328 282.21875 211.4375 C 279.70533 211.64601 277.56434 211.91678 275.375 211.8125 C 271.47163 211.59011 267.41058 210.62939 263.5 209.46875 C 258.60278 208.10663 253.93193 206.49507 249.8125 203.875 C 247.94725 202.82561 246.32218 201.3517 244.59375 200.09375 C 244.48572 199.98953 244.21875 199.9375 244.21875 199.9375 C 244.11793 199.93749 243.99023 199.75 243.875 199.75 L 243.6875 199.75 L 243.5 199.75 C 243.39198 199.75001 243.45179 199.82625 243.34375 199.9375 C 243.23572 199.93749 243.2643 199.81933 243.15625 199.9375 C 243.15627 199.93749 242.96875 199.98951 242.96875 200.09375 L 242.78125 200.28125 C 242.78127 200.28124 242.78125 200.37841 242.78125 200.46875 C 242.78127 200.57995 242.78125 200.79149 242.78125 201 C 242.44997 201.85476 242.18493 202.87781 242.0625 203.71875 C 241.73122 205.92182 241.91872 207.97049 242.25 210.1875 C 242.89097 213.87083 244.25266 217.24747 246.21875 220.625 C 248.40811 224.39177 251.24474 228.13225 250.90625 232.34375 C 250.81265 233.80325 250.25349 235.30119 249.28125 236.46875 C 247.94893 238.25485 245.56166 238.86393 243.15625 239.71875 C 237.38762 241.60216 232.38926 243.68265 226.9375 245.46875 C 217.02062 248.94359 206.02129 251.53752 196.875 257 C 193.72782 258.89032 190.82774 261.10247 187.875 263.3125 C 187.76697 263.43061 187.79554 263.37841 187.6875 263.46875 L 187.53125 263.46875 C 187.53126 263.58692 187.34375 263.65625 187.34375 263.65625 L 187.34375 264.03125 L 187.34375 264.1875 C 187.34376 264.30561 187.42321 264.28465 187.53125 264.375 C 187.53126 264.47928 187.43043 264.45826 187.53125 264.5625 L 187.6875 264.75 C 187.79552 264.8473 187.875 264.75006 187.875 264.75 C 187.98303 264.74999 188.0625 264.75006 188.0625 264.75 C 188.1561 264.74999 188.29822 264.75006 188.40625 264.75 C 191.7767 264.74999 195.43948 264.87121 198.6875 265.28125 C 202.06515 265.71912 204.91864 266.56848 208.75 267.8125 C 210.60088 268.35459 212.57497 268.81508 212.90625 269.96875 C 213.33836 271.14327 212.43379 272.73163 211.46875 274.09375 C 209.18579 277.34626 206.61438 279.41505 204.09375 281.5 C 199.96713 285.08605 195.59563 289.25369 191.65625 293.5625 C 189.38049 296.08527 187.25442 298.65427 185.1875 301.28125 C 184.94985 301.48279 184.70641 301.78458 184.46875 302 C 184.37515 302.0973 184.46875 302.07625 184.46875 302.1875 C 184.46877 302.18749 184.28125 302.27076 184.28125 302.375 L 184.28125 302.71875 C 184.28126 302.82298 184.46875 302.802 184.46875 302.90625 C 184.46877 302.90625 184.37515 302.98251 184.46875 303.09375 L 184.625 303.09375 C 184.74743 303.19105 184.8125 303.09375 184.8125 303.09375 C 184.91333 303.09375 184.88475 303.28131 185 303.28125 C 185.21605 303.28124 185.3152 303.28131 185.53125 303.28125 C 185.96336 303.38553 186.52944 303.4375 186.96875 303.4375 C 192.40612 303.85452 197.87952 301.78938 203 300.21875 C 207.89724 298.64116 212.41346 297.53588 217.75 296.0625 C 219.93215 295.42315 222.21164 294.74561 224.0625 295.90625 C 225.15719 296.53171 226.34118 297.66566 226.21875 298.9375 C 226.21876 299.98689 225.47957 301.03404 224.59375 302 C 220.14305 307.35827 216.04189 311.45493 211.46875 315.875 C 206.24745 320.91356 200.33304 326.34259 195.96875 332.4375 C 194.21152 334.64056 192.73845 336.86968 191.3125 339.28125 C 191.20447 339.38553 191.125 339.56591 191.125 339.65625 L 191.125 339.8125 L 191.125 340 L 191.125 340.1875 L 191.125 340.375 L 191.125 340.71875 L 191.3125 340.71875 C 191.31251 340.82994 191.46875 340.90625 191.46875 340.90625 C 191.56235 341.01745 191.65625 340.90625 191.65625 340.90625 L 191.84375 340.90625 L 192.03125 340.90625 L 192.75 340.90625 C 193.93831 340.70472 195.32134 340.50023 196.53125 340.1875 C 201.43569 339.22844 206.09738 337.55682 210.5625 335.875 C 216.00708 333.7831 220.96 331.81449 226.9375 329.1875 C 230.86249 327.39448 235.30021 325.30044 238.65625 327.40625 C 239.75093 328.04558 240.57484 329.03047 240.8125 330.09375 C 241.12938 331.34467 240.32589 332.88091 239.5625 334.25 C 237.60362 337.61372 236.08465 340.40745 234.6875 343.4375 C 232.49817 348.06602 230.29645 353.22525 229.09375 358.375 C 228.22234 361.63444 227.83128 364.93149 227.5 368.28125 C 227.50001 368.49667 227.5 368.59011 227.5 368.8125 L 227.5 369 C 227.50001 369.10428 227.5 369.15625 227.5 369.15625 C 227.50001 369.25355 227.65625 369.2325 227.65625 369.34375 C 227.77868 369.34377 227.75011 369.53125 227.84375 369.53125 C 227.84376 369.62855 228.03125 369.6214 228.03125 369.71875 C 228.14648 369.71877 228.21875 369.71875 228.21875 369.71875 C 228.31958 369.71877 228.375 369.71875 228.375 369.71875 C 228.48302 369.71877 228.5625 369.71875 228.5625 369.71875 C 228.66333 369.62145 228.75 369.71875 228.75 369.71875 C 229.18211 369.39207 229.68312 369.11826 230 368.8125 C 231.29634 367.86038 232.47052 366.79944 233.78125 365.75 C 236.60437 363.4427 239.50637 361.32473 242.4375 358.90625 C 246.03842 355.96655 249.50288 352.80711 253.40625 350.8125 C 258.41152 347.9631 264.15188 346.95436 269.8125 343.0625 C 272.31154 341.47793 274.5874 339.34662 277 340.1875 C 278.08749 340.50023 279.14016 341.39162 279.6875 342.34375 C 280.66695 344.00472 280.37938 345.87355 280.0625 347.75 C 279.61599 350.81482 279.61691 353.71312 278.96875 356.5625 C 278.29899 359.61347 277.06072 362.61581 275.75 365.5625 C 275.51954 365.87523 275.29553 366.33661 275.1875 366.65625 C 275.07947 366.65625 275.1875 366.84375 275.1875 366.84375 L 275.1875 367 L 275.1875 367.1875 C 275.29553 367.29178 275.1875 367.375 275.1875 367.375 C 275.29553 367.49317 275.28135 367.47215 275.375 367.5625 C 275.37501 367.56251 275.5625 367.60061 275.5625 367.71875 L 275.75 367.71875 C 275.87243 367.81605 275.90625 367.71875 275.90625 367.71875 L 276.09375 367.71875 C 276.22338 367.62145 276.37512 367.71875 276.46875 367.71875 C 277.46261 367.60064 278.5374 367.59739 279.53125 367.375 C 282.69286 366.84679 285.63587 365.35193 288.34375 363.78125 C 292.26155 361.67549 295.84291 359.16544 298.78125 356.21875 C 302.03647 353.17476 304.53926 349.90875 308.6875 346.65625 C 310.97766 344.8702 313.70006 342.73892 315.875 343.59375 C 317.07769 344.01768 318.02506 345.06167 318.78125 346.125 C 320.43045 348.21688 321.08756 350.57127 321.84375 352.78125 C 322.81598 355.72793 323.97503 358.64706 325.0625 361.59375 C 325.19213 361.80226 325.32947 362.10399 325.4375 362.3125 C 325.43749 362.42369 325.51695 362.5 325.625 362.5 L 325.625 362.6875 C 325.73302 362.68749 325.67321 362.58322 325.78125 362.6875 L 326.15625 362.6875 L 326.34375 362.6875 L 326.5 362.6875 L 326.6875 362.6875 L 326.875 362.6875 C 326.87499 362.68749 326.76698 362.59735 326.875 362.5 C 326.98303 362.28458 327.35609 362.18417 327.59375 361.96875 C 328.2419 361.03049 328.98661 360.01806 329.75 359.09375 C 332.37145 356.14704 335.03842 352.98509 336.78125 349.71875 C 339.3955 345.30565 340.04111 340.69573 342 334.40625 C 342.97943 330.71595 344.50893 326.57636 347.5625 326.6875 C 348.75799 326.68752 350.25102 327.20069 351 328.125 C 352.19549 329.40374 352.09375 331.35626 352.09375 333.15625 C 352.00015 336.71452 352.18735 339.99749 352.09375 343.25 C 351.96411 346.41909 351.43211 349.62605 351 352.78125 C 350.89918 353.5179 350.73303 354.30507 350.625 354.9375 L 350.625 355.125 C 350.62499 355.24316 350.70445 355.21516 350.8125 355.3125 C 350.81249 355.4028 350.88476 355.53117 351 355.65625 L 351.53125 356.375 C 351.53124 356.37502 351.6107 356.5625 351.71875 356.5625 C 351.71873 356.66678 351.71875 356.75 351.71875 356.75 C 351.82677 356.8612 352.09375 356.75 352.09375 356.75 L 352.25 356.75 L 352.4375 356.75 L 352.625 356.75 C 353.05711 356.45116 353.44289 356.05219 353.875 355.84375 C 356.25158 354.25919 358.7097 352.59861 360.90625 350.8125 C 364.80962 347.65734 368.03041 343.81555 370.96875 339.8125 C 373.90707 335.71213 376.66506 331.70793 379.625 327.59375 C 381.69191 324.86944 383.73038 322.21641 387 320.75 C 389.49182 319.59633 392.94286 318.98878 395.125 320.03125 C 397.19191 320.98334 398.4223 323.27944 399.625 325.59375 C 399.94908 329.36742 400.24292 333.23314 400.34375 337.125 C 400.5598 345.52031 399.63481 353.90327 398 362.3125 C 395.28491 377.44901 389.9222 391.95442 383.9375 406.25 C 377.1894 422.65137 369.47118 438.50463 364.15625 455.21875 C 358.92052 470.7584 355.89727 486.84172 354.59375 503.125 C 353.60709 514.79361 353.48661 526.64732 354.25 538.40625 C 355.1214 553.33432 357.17138 568.24563 359.46875 583.0625 C 360.21773 587.78833 360.94201 592.45121 360.71875 597.28125 C 360.71874 598.97005 360.55623 600.49543 359.46875 601.96875 C 358.58292 603.10853 357.20013 604.32653 355.875 604.125 C 354.78752 604.0276 353.81161 603.08753 353.15625 602.15625 C 352.40004 600.98172 351.98496 599.8863 351.53125 598.71875 C 350.45097 595.4663 349.62849 591.94364 348.65625 588.46875 C 345.81152 578.28044 342.39554 568.39612 338.03125 558.9375 C 331.05269 543.16157 321.80346 528.18088 311.5625 514.09375 C 301.12707 499.38814 289.54697 485.48184 276.28125 472.875 C 263.08756 460.05271 248.16228 448.55116 231.28125 440.65625 C 223.55372 437.08408 215.33749 434.38746 207.15625 431.65625 C 210.33551 444.61743 223.58263 452.26195 231.4375 460.28125 C 244.92649 473.64562 257.10199 488.67925 268.53125 504.03125 C 280.62309 520.11294 291.89924 536.40322 300.9375 554.0625 C 310.96962 572.88243 318.30194 593.03314 324.71875 613.3125 C 331.69009 635.27368 337.4931 657.79883 341.28125 680.28125 C 343.34446 692.63928 344.96278 704.95902 346.375 717.3125 C 335.48149 716.18992 324.73916 714.53418 314.1875 712.375 C 292.77921 707.99422 272.1099 701.53948 252.4375 693.21875 C 213.09269 676.5773 177.66264 652.50639 147.90625 622.75 C 118.14986 592.99361 94.078952 557.56356 77.4375 518.21875 C 60.796046 478.87394 51.59375 435.59421 51.59375 390.1875 C 51.59375 208.56063 198.84188 61.34375 380.46875 61.34375 z M 473.25 138.46875 C 473.37141 138.4594 473.51519 138.47914 473.625 138.53125 C 474.27315 138.74667 474.73842 139.4196 475.0625 140.15625 C 475.81148 141.92847 475.64365 143.69318 475.21875 145.375 C 474.54897 148.6275 472.94293 151.73717 471.625 154.90625 C 470.31426 157.83209 469.47687 161.03587 468.375 164.09375 C 469.47686 163.98953 470.46526 164.12889 471.4375 163.90625 C 474.14537 163.49621 476.67601 161.57736 478.84375 160.3125 C 482.76872 157.88006 486.0431 156.79741 491.25 153.84375 C 493.44654 152.57889 495.8499 150.88455 496.84375 152.03125 C 497.4847 152.56637 497.47583 154.45729 497.375 155.8125 C 497.15895 157.40398 496.73497 158.50947 496.28125 159.78125 C 495.10015 163.0268 493.2 166.41404 491.78125 169.875 C 490.26886 173.44023 489.15447 176.88962 487.84375 180.46875 C 489.58657 180.78148 491.21858 181.13548 492.875 181.03125 C 496.01497 181.13548 499.24659 179.8722 502.0625 179.03125 C 505.22408 178.0722 507.78231 177.47642 512.125 176.53125 C 514.86169 175.91968 518.00539 175.12089 518.4375 175.96875 C 519.32332 176.69849 516.29994 179.83866 514.125 181.9375 C 512.38215 183.522 511.23125 184.56514 509.8125 185.71875 C 506.45644 188.55424 501.96423 192.04043 496.84375 193.625 C 493.68215 194.68827 490.23307 195.04998 488.375 197.78125 C 487.84207 198.50404 487.4402 199.37098 487.65625 200.09375 C 487.76428 201.1432 489.09283 202.11074 490.1875 202.625 C 491.93753 203.46594 493.39644 203.66655 495.03125 203.875 C 495.48496 204.00008 495.82754 204.0625 496.28125 204.0625 L 496.28125 204.25 L 496.46875 204.25 C 496.57678 204.25 496.73572 204.4375 496.84375 204.4375 L 496.84375 204.59375 L 496.84375 204.78125 C 496.84374 204.89245 496.95178 204.8784 496.84375 204.96875 L 496.84375 205.15625 L 496.84375 205.5 L 496.65625 205.5 C 496.65624 205.5 496.57679 205.56935 496.46875 205.6875 C 496.01504 205.99332 495.73033 206.38525 495.40625 206.59375 C 493.6634 207.65011 491.79994 208.40238 489.625 208.9375 C 487.01793 209.66027 483.69807 209.93233 482.625 212.15625 C 482.30092 212.87902 482.22145 213.66603 482.4375 214.5 C 482.75438 215.65367 483.773 216.67656 484.78125 217.40625 C 488.2453 220.13753 491.97601 221.49135 495.5625 223.6875 C 497.84546 225.04962 499.99558 226.88061 502.0625 228.5625 C 502.38658 228.77094 502.56519 228.89222 502.78125 229.09375 C 502.88207 229.19105 502.99537 229.1631 503.125 229.28125 C 503.12499 229.28125 503.0314 229.46875 503.125 229.46875 L 503.125 229.625 L 503.125 229.8125 C 503.12499 229.93061 503.2186 230 503.125 230 C 503.12499 230.10428 503.0981 230.1875 502.96875 230.1875 C 502.96874 230.2987 502.78125 230.43394 502.78125 230.53125 C 502.56519 230.64245 502.46606 230.71169 502.25 230.90625 C 501.36417 231.44835 500.58297 232.01714 499.71875 232.34375 C 498.27838 232.98316 496.93303 233.39221 495.40625 233.59375 C 492.90721 234.01767 490.35717 233.80917 487.84375 233.59375 C 484.56691 233.39221 481.29355 233.34785 477.9375 232.5 C 475.84897 231.97876 473.47586 231.05853 471.625 231.78125 C 470.85439 232.10792 470.27585 232.55515 469.84375 233.0625 C 468.5114 234.62615 468.79924 236.92217 469.65625 238.8125 C 470.41243 240.71672 471.63654 242.15176 473.0625 243.5 C 475.01417 245.3973 477.02312 247.34176 478.125 249.96875 C 478.76595 251.33785 479.16783 252.94341 478.84375 254.3125 C 478.6349 255.3619 477.93674 256.34656 477.375 257.1875 C 477.26697 257.1875 477.375 257.375 477.375 257.375 C 477.2886 257.4723 477.21875 257.42 477.21875 257.53125 C 477.06752 257.53124 477.03125 257.61451 477.03125 257.71875 C 476.93042 257.71875 476.9518 257.61447 476.84375 257.71875 L 476.65625 257.71875 C 476.52662 257.71875 476.42053 257.82297 476.3125 257.71875 C 475.34024 257.40602 474.24385 257.02095 473.25 256.8125 C 470.30445 255.96459 467.39024 255.37903 464.4375 254.65625 C 462.26975 254.11416 460.29995 253.59375 458.125 253.59375 C 456.59821 253.59376 455.0152 253.64172 453.8125 254.46875 C 453.16433 254.88576 452.53318 255.46132 452.1875 256.09375 C 451.64736 257.26132 452.15926 258.68643 452.375 260.0625 C 452.82872 261.73042 452.7473 263.26259 452.53125 264.9375 C 452.29359 266.8348 452.03912 269.01647 450.75 270.15625 C 449.64811 271.21262 447.77678 271.64572 446.25 271.75 C 443.85899 271.95845 441.87672 271.8926 439.59375 271.59375 C 436.21609 271.16285 432.63998 270.54431 429.5 271.59375 C 427.84357 272.11499 426.42595 272.97839 425 273.9375 C 425.20885 275.72355 425.47415 277.39812 425.90625 278.96875 C 426.23754 280.54634 426.71694 282.00545 427.15625 284 C 427.59556 285.79998 428.008 287.96488 426.8125 288.5 C 426.16432 288.9309 424.97932 288.72239 423.90625 288.5 C 421.70969 287.88152 419.99992 287.16368 418.15625 286.53125 C 415.66442 285.67643 412.77758 285.11151 410.0625 284.5625 C 409.60878 284.56249 409.06431 284.47925 408.625 284.375 C 408.62499 284.37502 408.56684 284.375 408.4375 284.375 C 408.3511 284.37502 408.35805 284.375 408.25 284.375 C 408.13478 284.37502 408.17774 284.5625 408.0625 284.5625 C 407.94007 284.69455 407.81957 284.62151 407.71875 284.71875 C 407.71874 284.71876 407.82678 284.90625 407.71875 284.90625 L 407.71875 285.09375 C 407.50269 285.93464 407.21605 286.73898 407 287.59375 C 405.71086 291.90958 404.43586 296.26758 403.21875 300.5625 C 402.03044 304.67681 400.87593 308.89964 399.78125 313 C 399.02505 312.66642 398.38119 312.2051 397.625 311.90625 C 395.44285 310.74567 393.17225 309.5804 390.78125 308.84375 C 388.82235 308.21823 386.72316 307.97587 384.65625 307.78125 C 382.79817 307.56582 380.92301 307.40625 379.09375 307.40625 L 378.375 307.40625 L 378.1875 307.40625 C 378.0939 307.40624 378 307.30895 378 307.40625 C 377.89197 307.40624 377.77868 307.48251 377.65625 307.59375 L 377.65625 307.78125 C 377.65624 307.88553 377.46875 307.96875 377.46875 307.96875 C 377.35352 308.52473 377.19458 308.8087 377.09375 309.21875 C 376.43118 311.63723 375.73664 314.15116 374.75 316.25 C 373.44646 319.18972 371.99452 321.08743 369.71875 324.875 C 367.09008 328.96841 363.48306 335.67514 361.625 333.6875 C 360.876 333.06204 360.40356 331.1401 360.1875 329.5625 C 359.7626 327.26909 359.92053 325.34878 359.8125 323.25 C 359.81249 321.46392 359.67592 319.3973 360 317.5 C 360.21605 315.08844 361.04283 312.88032 360.71875 310.46875 C 360.61072 308.66876 359.68047 306.8307 358.03125 305.78125 C 357.26785 305.23224 356.28474 305.15967 355.3125 305.25 C 353.7857 305.3404 352.74115 306.46805 351.53125 307.40625 C 349.69478 308.87956 347.95451 310.27662 346.3125 311.75 C 344.3536 313.74455 342.54106 316.1893 340.90625 318.40625 C 338.51524 321.87417 336.01418 324.52782 334.0625 329.03125 C 333.18386 331.13704 332.56499 333.56919 330.84375 333.875 C 329.74907 334.0974 328.30816 333.47604 326.875 332.96875 C 326.02518 332.54476 325.17221 332.43446 324.53125 331.90625 C 323.01165 330.73869 322.6902 328.27609 322.90625 325.96875 C 323.1223 323.77258 323.88763 321.61576 322.5625 320.03125 C 321.92153 319.40574 320.89547 318.83322 320.03125 318.9375 C 318.82854 318.9375 317.92684 320.03739 317.15625 321.09375 C 315.74468 322.78952 314.6982 324.39115 313.71875 325.96875 C 312.31439 328.38721 310.93303 330.91821 309.40625 333.53125 C 307.10886 337.54128 304.15789 341.45692 300.03125 343.25 C 297.51063 344.41059 294.64012 344.7324 291.59375 345.03125 C 291.70178 343.80114 291.59375 342.50099 291.59375 341.25 C 291.59377 339.65154 291.59375 338.16438 291.59375 336.59375 C 291.70178 333.54285 292.02586 330.53346 291.59375 327.59375 C 291.48573 326.22459 291.19188 324.61212 290.875 323.25 C 290.87502 323.25002 290.875 323.16674 290.875 323.0625 C 290.87502 322.9652 290.6875 322.90625 290.6875 322.90625 C 290.57947 322.90627 290.60805 322.90625 290.5 322.90625 C 290.39198 322.90627 290.42054 322.71875 290.3125 322.71875 L 289.96875 322.71875 L 289.78125 322.71875 L 289.78125 322.90625 C 289.5652 322.90627 289.48766 322.94435 289.25 323.0625 C 287.07506 323.79922 284.89639 324.6555 282.9375 325.59375 C 279.77592 326.95585 276.89719 328.3426 273.75 329.90625 C 270.36516 331.5047 266.58933 333.01616 263.3125 334.59375 C 260.27336 335.96285 257.55449 337.37841 253.40625 337.46875 C 252.10994 337.58691 250.78306 337.56994 250.34375 336.9375 C 249.58757 336.09664 250.29222 334.29279 251.0625 332.8125 C 252.35883 330.19249 253.19816 328.40437 253.96875 326.3125 C 254.51609 324.83921 255.13039 323.06024 255.5625 321.46875 C 256.09543 319.91202 256.62576 318.37273 257.1875 316.78125 C 257.2811 316.36424 257.45447 315.9413 257.5625 315.53125 L 257.5625 315.34375 L 257.75 315.34375 L 257.75 315.15625 C 257.75001 315.03117 257.67055 314.96881 257.5625 314.96875 C 257.56251 314.87845 257.67053 314.78125 257.5625 314.78125 C 257.56251 314.66309 257.48304 314.72924 257.375 314.625 C 257.37501 314.62499 257.28115 314.43745 257.1875 314.4375 C 257.18751 314.43751 257.10804 314.25 257 314.25 L 256.65625 314.25 L 256.46875 314.25 L 256.46875 314.4375 C 256.2671 314.43751 256.13915 314.625 255.9375 314.625 C 254.85724 315.02807 253.57307 315.30886 252.5 315.53125 C 248.02049 316.67104 243.33742 316.40625 238.65625 316.40625 C 234.75288 316.40625 230.72064 316.57274 226.78125 316.78125 C 226.78126 315.41906 226.78621 314.05651 227.125 312.8125 C 227.69394 307.94772 231.88196 305.6911 237.03125 300.9375 C 241.5828 296.96222 247.01524 290.77224 244.0625 288.875 C 242.97504 287.93674 240.05432 287.88548 237.5625 287.78125 C 234.83302 287.67703 232.54995 287.64601 230.375 287.4375 C 227.32145 287.1178 224.45084 286.67058 220.09375 286.15625 C 218.13487 285.94781 215.91783 285.52852 215.59375 284.5625 C 215.15444 283.63818 217.01424 281.94895 218.65625 280.59375 C 221.6018 278.17526 223.6715 276.96276 226.0625 275.71875 C 230.75089 273.30021 236.62682 270.37418 241.53125 266.90625 C 244.484 264.89083 247.01074 262.63359 249.625 260.4375 C 249.73302 260.31933 249.87757 260.16672 250 260.0625 C 250.10802 259.9721 250.07946 260.00035 250.1875 259.875 L 250.1875 259.6875 C 250.29553 259.58327 250.34375 259.53125 250.34375 259.53125 L 250.34375 259.34375 C 250.34376 259.23255 250.1875 259.15625 250.1875 259.15625 C 250.18751 259.05203 250.10804 258.96875 250 258.96875 L 250 258.625 L 249.8125 258.625 C 249.70448 258.52071 249.46875 258.62494 249.46875 258.625 C 249.01504 258.625 248.68468 258.62494 248.375 258.625 C 246.85543 258.52072 245.40179 258.4375 243.875 258.4375 C 240.93668 258.54173 238.2668 259.29938 234.6875 258.25 C 232.94468 257.72179 231.09375 256.69517 231.09375 255.75 C 230.8777 254.71449 232.82224 253.62569 234.6875 252.6875 C 238.37484 250.7902 240.87159 249.69184 243.6875 248.53125 C 248.0374 246.74516 253.19652 244.67158 258.09375 242.78125 C 261.37058 241.6137 264.42239 240.34814 267.46875 239.1875 C 267.89366 239.08327 268.29384 239.09035 268.71875 239 L 268.71875 238.8125 C 268.84118 238.81251 268.78381 238.72235 268.90625 238.625 L 269.09375 238.625 C 269.21619 238.52071 269.25 238.28125 269.25 238.28125 L 269.25 238.09375 C 269.12757 238.00345 269.09375 237.90625 269.09375 237.90625 L 269.09375 237.75 C 268.75527 237.43031 268.40356 237.14951 268.1875 236.84375 C 267.30169 236.00282 266.60714 235.07714 265.84375 234.125 C 264.54023 232.46403 263.4383 230.49082 262.25 228.90625 C 260.51438 226.59895 258.72123 224.9363 257 221.90625 C 256.21501 220.62749 255.41152 219.22642 255.75 218.28125 C 255.75001 216.17545 260.73308 217.02041 264.21875 217.5625 C 267.81246 217.97952 270.08045 218.16309 272.6875 218.28125 C 275.8491 218.46885 279.5313 218.55196 283.125 218.65625 C 286.61069 218.86475 290.10538 219.09118 293.375 217.9375 C 294.90179 217.40238 296.29924 216.55295 297.15625 215.40625 C 298.25814 214.25258 298.78125 212.65049 298.78125 211.09375 C 298.88927 209.62037 298.56688 208.31357 298.25 206.9375 C 297.79629 205.06106 297.35984 202.98052 296.8125 201.1875 C 296.05632 198.352 295.09194 195.7837 295.53125 192.53125 C 295.7473 190.32122 296.72849 187.94493 298.59375 187.3125 C 299.78926 186.88857 301.33124 187.33287 302.75 187.875 C 306.02683 188.92441 308.66713 190.34609 311.375 191.8125 C 313.55714 192.86886 315.80614 193.67649 318.21875 194.53125 C 319.61589 195.04558 321.19916 195.57274 322.71875 195.78125 C 324.45437 195.88547 326.35529 195.66391 327.78125 194.71875 C 328.97674 193.98208 329.72671 192.72664 330.28125 191.46875 C 330.9222 189.68264 331.05261 187.94282 330.84375 185.53125 C 330.6277 181.43089 329.96779 174.40602 332.8125 174.71875 C 333.79193 174.71876 335.16252 175.83253 336.25 176.875 C 337.99282 178.45951 338.92769 180.31864 340.5625 181.375 C 341.54913 182.00745 342.66522 182.45471 343.96875 182.65625 C 346.03565 183.19834 348.35091 183.3929 350.09375 182.65625 C 352.16066 181.9196 353.7946 179.70662 354.78125 177.40625 C 355.86871 174.98777 356.07496 172.42181 356.40625 170.21875 C 356.6223 168.31446 356.88039 166.67878 357.3125 164.46875 C 357.42773 163.31509 357.59915 161.97254 358.03125 161.5625 C 359.11871 159.56096 362.36877 164.64753 364.875 166.96875 C 366.48819 168.5255 367.97592 169.03411 369.71875 169.875 C 371.07764 170.44186 372.54981 171.18102 374.03125 171.46875 C 372.10046 172.34638 370.19549 173.09903 368.28125 174 C 351.83952 181.6656 335.94606 189.98571 320.9375 199.5625 C 305.69127 209.13225 291.30713 220.30265 278.4375 233.25 C 269.74494 241.65226 261.68745 250.65438 258.09375 262.21875 C 255.0618 270.73911 254.59919 280.59797 258.625 288.6875 C 261.14565 294.46969 265.8179 299.43523 271.59375 302.375 C 276.47658 305.12016 282.14468 306.35376 287.8125 306.875 C 293.79721 307.40321 299.74113 307.29201 305.625 306.875 C 313.34535 306.35376 320.98132 305.01185 328.5 303.09375 C 340.04448 300.37643 351.15383 296.15999 361.8125 291.21875 C 370.86516 287.03496 379.41532 282.40316 387.90625 277.34375 C 390.61412 275.787 393.46522 274.00827 396.1875 272.3125 C 399.45711 270.33184 402.75906 268.27942 405.90625 266.1875 C 415.49184 259.98836 424.76703 253.22764 433.8125 246.1875 C 444.48556 238.09802 454.87494 229.66758 463.71875 219.375 C 470.12835 212.11944 475.77839 203.90659 477.21875 194.34375 C 478.51507 187.83181 477.76962 180.78569 474.5 174.90625 C 471.03592 168.37347 464.48563 163.54394 457.40625 160.5 C 453.99149 158.95224 450.41436 157.80999 446.78125 157.0625 C 447.23001 156.87128 447.79489 156.74644 448.21875 156.53125 C 454.09542 154.01545 458.3457 148.94411 463.34375 144.84375 C 464.67607 143.79435 465.85723 142.97983 466.9375 142.125 C 468.03217 141.29104 469.25177 140.40353 470.5625 139.4375 C 471.29165 138.96316 472.12659 138.61951 472.875 138.53125 C 472.99973 138.51655 473.12859 138.4781 473.25 138.46875 z M 390.65625 139.21875 C 391.6713 139.25781 392.88591 140.04798 393.84375 140.875 C 396.01148 142.54985 397.60272 143.93271 398.90625 145.71875 C 400.64907 147.92878 402.18119 150.66814 402.84375 153.28125 C 403.36706 155.66591 403.26176 158.04338 403.03125 160.5 C 395.12268 162.75606 387.37209 165.70495 379.8125 168.96875 C 380.12926 168.49389 380.31341 167.84586 380.53125 167.34375 C 381.05698 165.88432 381.3777 164.54967 381.59375 163.1875 C 381.91783 161.28328 382.34902 159.32092 382.6875 157.4375 C 382.99718 155.23444 383.16164 153.06759 383.59375 150.96875 C 384.2563 147.91086 385.33663 145.17597 387.1875 142.125 C 388.0445 140.76289 389.05451 139.35422 390.25 139.25 C 390.38593 139.22307 390.51124 139.21317 390.65625 139.21875 z M 434.96875 164.0625 C 441.43056 164.15915 447.81023 165.31234 453.8125 168.0625 C 459.14903 170.27946 464.33045 173.75317 466.9375 178.6875 C 469.32849 182.89906 469.81612 188.26365 468.9375 193.09375 C 467.74919 201.18321 462.66331 207.85989 457.21875 213.96875 C 448.61258 223.83045 438.83471 232.01134 428.59375 239.90625 C 419.77153 246.7309 410.55448 253.24186 401.0625 259.34375 C 397.9225 261.33831 394.83468 263.2867 391.6875 265.28125 C 388.958 266.95616 386.11413 268.72101 383.40625 270.3125 C 375.2466 275.1426 366.75984 279.54201 358.03125 283.65625 C 347.90551 288.38207 337.3409 292.63349 326.34375 295.15625 C 319.35799 296.83808 312.21608 297.88501 304.90625 298.40625 C 299.56973 298.83018 294.17052 298.9344 288.71875 298.40625 C 284.26085 298.07963 279.72321 297.25509 275.90625 295.15625 C 271.76523 293.05051 268.42056 289.53089 266.5625 285.4375 C 263.41532 279.12019 263.9552 271.38701 266.375 264.75 C 269.5222 254.45746 276.75549 246.40855 284.375 238.8125 C 296.89175 226.51839 310.92612 215.82301 325.625 206.59375 C 340.32387 197.12816 355.75736 189.13079 371.875 181.5625 C 388.65519 173.57725 406.08061 166.18865 424.8125 164.625 C 427.25932 164.31048 429.71763 164.16542 432.1875 164.09375 C 433.1137 164.06687 434.04563 164.04869 434.96875 164.0625 z "
     transform="matrix(0.17356763,0,0,0.17356763,-0.04262803,0)"
     id="path5461" />
</svg>
