<?xml version="1.0" encoding="UTF-8" standalone="no"?>
<!DOCTYPE svg PUBLIC "-//W3C//DTD SVG 20010904//EN"
              "http://www.w3.org/TR/2001/REC-SVG-20010904/DTD/svg10.dtd">

<svg xmlns="http://www.w3.org/2000/svg"
     width="8.41111in" height="8.53333in"
     viewBox="0 0 757 768">
  <path id="path5461"
        fill="none" stroke="black" stroke-width="1"
        d="M 725.04,389.75
           C 725.04,484.96 686.41,571.17 623.97,633.56
             592.75,664.76 555.58,689.99 514.31,707.44
             493.67,716.16 472.01,722.94 449.55,727.53
             438.32,729.83 426.90,731.57 415.31,732.75
             409.51,733.34 403.64,733.80 397.76,734.09
             391.88,734.39 385.96,734.53 380.00,734.53
             368.09,734.53 356.33,733.93 344.73,732.75
             333.13,731.57 321.72,729.83 310.49,727.53
             288.03,722.94 266.36,716.16 245.73,707.44
             204.45,689.99 167.28,664.76 136.06,633.56
             104.84,602.37 79.57,565.22 62.11,523.97
             44.65,482.72 35.00,437.35 35.00,389.75
             35.00,199.33 189.46,44.97 380.00,44.97
             570.54,44.97 725.04,199.33 725.04,389.75 Z
           M 51.38,390.19
           C 51.38,435.59 60.59,478.87 77.24,518.22
             93.89,557.56 117.98,592.99 147.76,622.75
             177.53,652.51 212.99,676.58 252.36,693.22
             272.04,701.54 292.72,707.99 314.15,712.37
             324.70,714.53 335.45,716.19 346.35,717.31
             344.94,704.96 343.32,692.64 341.26,680.28
             337.47,657.80 331.66,635.27 324.68,613.31
             318.26,593.03 310.93,572.88 300.89,554.06
             291.84,536.40 280.56,520.11 268.46,504.03
             257.02,488.68 244.84,473.65 231.34,460.28
             223.48,452.26 210.23,444.62 207.04,431.66
             215.23,434.39 223.45,437.08 231.19,440.66
             248.08,448.55 263.01,460.05 276.21,472.87
             289.49,485.48 301.08,499.39 311.52,514.09
             321.77,528.18 331.02,543.16 338.00,558.94
             342.37,568.40 345.79,578.28 348.64,588.47
             349.61,591.94 350.43,595.47 351.51,598.72
             351.97,599.89 352.38,600.98 353.14,602.16
             353.80,603.09 354.77,604.03 355.86,604.12
             357.19,604.33 358.57,603.11 359.46,601.97
             360.54,600.50 360.71,598.97 360.71,597.28
             360.93,592.45 360.21,587.79 359.46,583.06
             357.16,568.25 355.11,553.33 354.23,538.41
             353.47,526.65 353.59,514.79 354.58,503.12
             355.88,486.84 358.91,470.76 364.15,455.22
             369.47,438.50 377.19,422.65 383.94,406.25
             389.93,391.95 395.30,377.45 398.01,362.31
             399.65,353.90 400.57,345.52 400.36,337.12
             400.26,333.23 399.96,329.37 399.64,325.59
             398.44,323.28 397.20,320.98 395.14,320.03
             392.95,318.99 389.50,319.60 387.01,320.75
             383.73,322.22 381.69,324.87 379.63,327.59
             376.66,331.71 373.90,335.71 370.96,339.81
             368.02,343.82 364.80,347.66 360.89,350.81
             358.70,352.60 356.24,354.26 353.86,355.84
             353.43,356.05 353.04,356.45 352.61,356.75
             352.61,356.75 352.42,356.75 352.42,356.75
             352.42,356.75 352.23,356.75 352.23,356.75
             352.23,356.75 352.08,356.75 352.08,356.75
             352.08,356.75 351.81,356.86 351.70,356.75
             351.70,356.75 351.70,356.67 351.70,356.56
             351.59,356.56 351.51,356.38 351.51,356.37
             351.51,356.37 350.98,355.66 350.98,355.66
             350.87,355.53 350.79,355.40 350.79,355.31
             350.69,355.22 350.61,355.24 350.61,355.12
             350.61,355.12 350.61,354.94 350.61,354.94
             350.72,354.31 350.88,353.52 350.98,352.78
             351.41,349.63 351.95,346.42 352.08,343.25
             352.17,340.00 351.98,336.71 352.08,333.16
             352.08,331.36 352.18,329.40 350.98,328.12
             350.23,327.20 348.74,326.69 347.54,326.69
             344.49,326.58 342.96,330.72 341.98,334.41
             340.02,340.70 339.37,345.31 336.75,349.72
             335.01,352.99 332.34,356.15 329.72,359.09
             328.95,360.02 328.21,361.03 327.56,361.97
             327.32,362.18 326.95,362.28 326.84,362.50
             326.73,362.60 326.84,362.69 326.84,362.69
             326.84,362.69 326.65,362.69 326.65,362.69
             326.65,362.69 326.47,362.69 326.47,362.69
             326.47,362.69 326.31,362.69 326.31,362.69
             326.31,362.69 326.12,362.69 326.12,362.69
             326.12,362.69 325.75,362.69 325.75,362.69
             325.64,362.58 325.70,362.69 325.59,362.69
             325.59,362.69 325.59,362.50 325.59,362.50
             325.48,362.50 325.40,362.42 325.40,362.31
             325.29,362.10 325.16,361.80 325.03,361.59
             323.94,358.65 322.78,355.73 321.81,352.78
             321.05,350.57 320.39,348.22 318.74,346.12
             317.99,345.06 317.04,344.02 315.83,343.59
             313.66,342.74 310.93,344.87 308.64,346.66
             304.49,349.91 301.99,353.17 298.73,356.22
             295.79,359.17 292.21,361.68 288.29,363.78
             285.58,365.35 282.63,366.85 279.47,367.37
             278.47,367.60 277.40,367.60 276.40,367.72
             276.31,367.72 276.16,367.62 276.03,367.72
             276.03,367.72 275.84,367.72 275.84,367.72
             275.84,367.72 275.81,367.82 275.68,367.72
             275.68,367.72 275.50,367.72 275.50,367.72
             275.50,367.60 275.31,367.56 275.31,367.56
             275.21,367.47 275.23,367.49 275.12,367.37
             275.12,367.37 275.23,367.29 275.12,367.19
             275.12,367.19 275.12,367.00 275.12,367.00
             275.12,367.00 275.12,366.84 275.12,366.84
             275.12,366.84 275.01,366.66 275.12,366.66
             275.23,366.34 275.45,365.88 275.68,365.56
             276.99,362.62 278.23,359.61 278.90,356.56
             279.55,353.71 279.55,350.81 280.00,347.75
             280.32,345.87 280.60,344.00 279.62,342.34
             279.08,341.39 278.02,340.50 276.93,340.19
             274.52,339.35 272.24,341.48 269.74,343.06
             264.08,346.95 258.33,347.96 253.33,350.81
             249.42,352.81 245.95,355.97 242.35,358.91
             239.42,361.32 236.51,363.44 233.69,365.75
             232.38,366.80 231.20,367.86 229.90,368.81
             229.59,369.12 229.09,369.39 228.65,369.72
             228.65,369.72 228.57,369.62 228.47,369.72
             228.47,369.72 228.39,369.72 228.28,369.72
             228.28,369.72 228.22,369.72 228.12,369.72
             228.12,369.72 228.05,369.72 227.93,369.72
             227.93,369.62 227.75,369.63 227.75,369.53
             227.65,369.53 227.68,369.34 227.56,369.34
             227.56,369.23 227.40,369.25 227.40,369.16
             227.40,369.16 227.40,369.10 227.40,369.00
             227.40,369.00 227.40,368.81 227.40,368.81
             227.40,368.59 227.40,368.50 227.40,368.28
             227.73,364.93 228.12,361.63 229.00,358.37
             230.20,353.23 232.40,348.07 234.59,343.44
             235.99,340.41 237.51,337.61 239.47,334.25
             240.24,332.88 241.04,331.34 240.72,330.09
             240.49,329.03 239.66,328.05 238.57,327.41
             235.21,325.30 230.77,327.39 226.84,329.19
             220.86,331.81 215.90,333.78 210.45,335.87
             205.99,337.56 201.32,339.23 196.41,340.19
             195.20,340.50 193.82,340.70 192.63,340.91
             192.63,340.91 191.91,340.91 191.91,340.91
             191.91,340.91 191.72,340.91 191.72,340.91
             191.72,340.91 191.53,340.91 191.53,340.91
             191.53,340.91 191.44,341.02 191.35,340.91
             191.35,340.91 191.19,340.83 191.19,340.72
             191.19,340.72 191.00,340.72 191.00,340.72
             191.00,340.72 191.00,340.37 191.00,340.37
             191.00,340.37 191.00,340.19 191.00,340.19
             191.00,340.19 191.00,340.00 191.00,340.00
             191.00,340.00 191.00,339.81 191.00,339.81
             191.00,339.81 191.00,339.66 191.00,339.66
             191.00,339.57 191.08,339.39 191.19,339.28
             192.62,336.87 194.09,334.64 195.85,332.44
             200.22,326.34 206.14,320.91 211.36,315.87
             215.94,311.45 220.04,307.36 224.49,302.00
             225.38,301.03 226.12,299.99 226.12,298.94
             226.24,297.67 225.06,296.53 223.96,295.91
             222.11,294.75 219.83,295.42 217.65,296.06
             212.31,297.54 207.79,298.64 202.89,300.22
             197.76,301.79 192.29,303.85 186.84,303.44
             186.40,303.44 185.84,303.39 185.41,303.28
             185.19,303.28 185.09,303.28 184.87,303.28
             184.76,303.28 184.79,303.09 184.69,303.09
             184.69,303.09 184.62,303.19 184.50,303.09
             184.50,303.09 184.34,303.09 184.34,303.09
             184.25,302.98 184.34,302.91 184.34,302.91
             184.34,302.80 184.16,302.82 184.16,302.72
             184.16,302.72 184.16,302.37 184.16,302.37
             184.16,302.27 184.34,302.19 184.34,302.19
             184.34,302.08 184.25,302.10 184.34,302.00
             184.58,301.78 184.82,301.48 185.06,301.28
             187.13,298.65 189.26,296.09 191.53,293.56
             195.48,289.25 199.85,285.09 203.98,281.50
             206.50,279.42 209.08,277.35 211.36,274.09
             212.33,272.73 213.23,271.14 212.80,269.97
             212.47,268.82 210.49,268.35 208.64,267.81
             204.81,266.57 201.95,265.72 198.57,265.28
             195.32,264.87 191.66,264.75 188.28,264.75
             188.17,264.75 188.03,264.75 187.94,264.75
             187.94,264.75 187.86,264.75 187.75,264.75
             187.75,264.75 187.67,264.85 187.56,264.75
             187.56,264.75 187.41,264.56 187.41,264.56
             187.31,264.46 187.41,264.48 187.41,264.37
             187.30,264.28 187.22,264.31 187.22,264.19
             187.22,264.19 187.22,264.03 187.22,264.03
             187.22,264.03 187.22,263.66 187.22,263.66
             187.22,263.66 187.41,263.59 187.41,263.47
             187.41,263.47 187.56,263.47 187.56,263.47
             187.67,263.38 187.64,263.43 187.75,263.31
             190.71,261.10 193.61,258.89 196.76,257.00
             205.91,251.54 216.92,248.94 226.84,245.47
             232.29,243.68 237.30,241.60 243.07,239.72
             245.48,238.86 247.86,238.25 249.20,236.47
             250.17,235.30 250.73,233.80 250.82,232.34
             251.16,228.13 248.32,224.39 246.13,220.62
             244.17,217.25 242.80,213.87 242.16,210.19
             241.83,207.97 241.64,205.92 241.97,203.72
             242.10,202.88 242.36,201.85 242.69,201.00
             242.69,200.79 242.69,200.58 242.69,200.47
             242.69,200.38 242.69,200.28 242.69,200.28
             242.69,200.28 242.88,200.09 242.88,200.09
             242.88,199.99 243.07,199.94 243.07,199.94
             243.18,199.82 243.15,199.94 243.26,199.94
             243.36,199.83 243.30,199.75 243.41,199.75
             243.41,199.75 243.60,199.75 243.60,199.75
             243.60,199.75 243.79,199.75 243.79,199.75
             243.90,199.75 244.03,199.94 244.13,199.94
             244.13,199.94 244.40,199.99 244.51,200.09
             246.24,201.35 247.86,202.83 249.73,203.87
             253.85,206.50 258.52,208.11 263.43,209.47
             267.34,210.63 271.40,211.59 275.31,211.81
             277.50,211.92 279.64,211.65 282.16,211.44
             284.01,211.33 286.11,211.05 287.19,210.00
             288.50,208.86 288.70,206.61 288.82,204.59
             288.94,198.29 287.52,193.49 287.19,188.03
             286.76,184.34 286.87,180.45 287.19,176.69
             287.52,173.30 288.00,170.16 288.66,166.81
             288.66,166.81 288.66,166.25 288.66,166.25
             288.66,166.25 288.66,166.09 288.66,166.09
             288.66,166.00 288.82,165.91 288.82,165.91
             288.82,165.79 288.91,165.72 289.00,165.72
             289.00,165.63 289.19,165.53 289.19,165.53
             289.32,165.42 289.38,165.53 289.38,165.53
             289.38,165.53 289.72,165.53 289.72,165.53
             289.72,165.53 289.91,165.53 289.91,165.53
             289.91,165.53 289.91,165.72 289.91,165.72
             290.02,165.84 290.10,165.91 290.10,165.91
             290.32,166.00 290.33,166.31 290.44,166.44
             292.52,169.27 294.88,172.07 297.48,174.37
             300.42,177.20 304.11,179.20 307.92,181.19
             310.32,182.34 312.67,183.64 315.30,183.53
             316.82,183.53 318.33,182.92 319.62,182.09
             321.59,180.84 322.82,178.65 323.59,176.34
             324.68,173.28 325.14,170.39 325.59,167.34
             325.91,164.93 326.19,162.30 326.84,159.78
             327.39,157.68 328.18,155.57 329.91,154.19
             330.25,153.97 330.49,154.05 330.81,153.84
             330.91,153.84 330.97,153.66 330.97,153.66
             330.97,153.66 331.16,153.66 331.16,153.66
             331.16,153.57 331.34,153.47 331.34,153.47
             331.44,153.47 331.42,153.47 331.53,153.47
             331.53,153.47 331.77,153.47 331.88,153.47
             331.88,153.47 331.88,153.66 331.88,153.66
             331.98,153.66 332.06,153.84 332.06,153.84
             332.06,153.94 332.25,153.89 332.25,154.00
             332.34,154.09 332.44,154.08 332.44,154.19
             332.44,154.41 332.33,154.55 332.44,154.75
             332.68,157.07 333.12,159.63 333.88,161.94
             334.76,164.68 336.24,167.44 338.54,169.12
             340.40,170.61 342.88,171.30 345.38,172.03
             346.69,169.09 347.96,166.22 348.29,163.19
             348.51,160.23 347.85,157.25 347.20,154.19
             346.54,151.66 345.95,148.98 345.95,146.47
             345.84,145.31 345.89,144.18 346.10,143.03
             346.10,142.70 346.18,142.44 346.29,142.12
             346.29,142.12 346.29,141.94 346.29,141.94
             346.29,141.94 346.29,141.78 346.29,141.78
             346.40,141.68 346.37,141.52 346.48,141.41
             346.48,141.41 346.70,141.50 346.82,141.41
             346.82,141.41 347.01,141.41 347.01,141.41
             347.01,141.41 347.20,141.41 347.20,141.41
             347.20,141.41 347.28,141.32 347.39,141.41
             347.39,141.41 347.54,141.48 347.54,141.59
             347.54,141.70 347.80,141.68 347.92,141.78
             349.78,143.46 351.71,145.03 353.67,146.62
             356.61,149.15 359.77,151.80 363.24,153.47
             365.32,154.64 367.39,155.37 369.90,156.00
             370.74,156.21 371.68,156.38 372.43,156.19
             374.18,155.98 375.16,153.91 376.03,152.03
             377.77,147.58 378.09,143.77 379.09,139.78
             379.96,136.10 381.44,132.45 381.78,128.44
             382.10,125.91 381.81,123.24 381.60,120.72
             381.49,120.51 381.60,120.36 381.60,120.16
             381.60,120.16 381.60,119.81 381.60,119.81
             381.60,119.71 381.49,119.73 381.60,119.62
             381.60,119.51 381.68,119.53 381.78,119.44
             381.89,119.33 382.06,119.44 382.16,119.44
             382.27,119.44 382.21,119.28 382.31,119.28
             382.44,119.28 382.50,119.33 382.50,119.44
             382.50,119.44 382.69,119.44 382.69,119.44
             382.79,119.44 382.98,119.33 383.22,119.44
             385.51,120.38 387.79,121.42 390.07,122.69
             394.55,124.89 398.68,127.76 401.95,131.34
             404.68,134.09 406.84,137.19 408.80,140.87
             409.55,142.24 410.55,143.75 411.87,144.47
             413.06,145.22 414.61,145.32 416.02,145.00
             418.42,144.48 420.18,142.33 421.59,140.34
             423.66,137.39 425.15,134.33 427.00,131.50
             429.40,127.92 432.60,124.94 436.19,122.31
             437.40,121.46 438.60,120.47 439.79,119.62
             439.90,119.51 440.11,119.55 440.35,119.44
             440.35,119.44 440.51,119.44 440.51,119.44
             440.62,119.33 440.78,119.28 440.88,119.28
             440.88,119.28 441.07,119.28 441.07,119.28
             441.18,119.39 441.12,119.44 441.23,119.44
             441.23,119.44 441.42,119.44 441.42,119.44
             441.42,119.55 441.60,119.34 441.60,119.44
             441.60,119.44 441.60,119.71 441.60,119.81
             441.60,119.81 441.60,119.90 441.60,120.00
             441.60,120.00 441.60,120.06 441.60,120.16
             441.60,120.16 441.60,120.34 441.60,120.34
             440.85,123.28 440.21,126.40 439.79,129.34
             439.25,132.60 438.78,135.48 438.35,139.06
             438.03,141.69 437.64,144.57 439.26,146.47
             440.25,147.94 442.44,149.05 444.29,149.16
             447.89,149.36 450.70,146.29 453.30,143.56
             458.11,138.74 462.64,134.92 467.56,131.34
             472.47,127.76 477.59,124.13 483.04,120.87
             487.19,118.44 491.56,116.39 495.48,114.41
             496.69,113.86 497.61,113.36 499.27,113.16
             500.13,113.16 501.27,113.08 501.61,113.50
             502.37,114.01 501.07,115.67 499.99,116.94
             497.68,119.56 496.08,120.79 494.58,122.69
             492.62,124.89 490.85,127.81 489.88,130.97
             489.24,132.85 488.87,134.90 488.63,136.91
             488.53,137.73 488.37,138.60 488.26,139.44
             492.07,138.39 495.96,137.52 499.80,136.37
             503.61,135.22 507.36,133.90 510.96,132.22
             513.35,131.07 515.59,129.90 518.00,128.62
             518.54,128.29 519.24,128.03 519.78,127.72
             519.78,127.72 519.78,127.56 519.78,127.56
             519.78,127.56 519.97,127.56 519.97,127.56
             519.97,127.56 520.15,127.56 520.15,127.56
             520.15,127.45 520.23,127.45 520.34,127.56
             520.34,127.56 520.50,127.56 520.50,127.56
             520.50,127.56 520.69,127.72 520.69,127.72
             520.79,127.72 520.87,127.91 520.87,127.91
             520.87,128.02 521.06,127.99 521.06,128.09
             521.06,128.09 521.06,128.28 521.06,128.28
             521.06,128.28 521.06,128.44 521.06,128.44
             521.06,128.54 521.15,128.71 521.06,128.81
             520.72,129.33 520.48,129.74 520.15,130.25
             519.19,132.27 518.11,134.11 516.90,136.00
             514.29,140.53 511.40,145.05 508.80,149.69
             507.48,151.99 506.22,154.49 506.11,157.44
             506.01,159.42 506.26,161.70 507.55,162.84
             509.40,164.73 513.37,163.67 516.75,162.84
             521.10,161.79 524.36,160.94 528.07,160.31
             532.54,159.47 537.78,158.83 542.67,159.25
             545.28,159.34 547.74,159.78 550.24,160.31
             550.45,160.40 550.55,160.31 550.77,160.31
             550.88,160.43 550.85,160.50 550.96,160.50
             551.06,160.60 551.04,160.50 551.14,160.50
             551.14,160.60 551.33,160.75 551.33,160.84
             551.33,160.97 551.49,160.94 551.49,161.03
             551.49,161.03 551.49,161.22 551.49,161.22
             551.49,161.22 551.49,161.41 551.49,161.41
             551.49,161.53 551.43,161.65 551.33,161.75
             551.33,161.75 551.26,161.75 551.14,161.75
             550.93,162.08 550.83,162.36 550.61,162.66
             548.44,165.09 546.02,167.44 543.20,169.12
             539.50,171.65 534.67,172.87 531.51,175.62
             529.98,176.76 528.74,178.28 527.53,180.47
             526.35,182.57 525.24,185.44 526.10,186.59
             526.98,188.08 530.88,186.85 533.85,186.44
             536.56,185.92 538.41,185.96 540.70,186.06
             540.70,186.06 540.89,186.06 540.89,186.06
             540.89,186.06 541.23,186.06 541.23,186.06
             541.34,186.17 541.42,186.06 541.42,186.06
             541.53,186.17 541.50,186.33 541.61,186.44
             541.61,186.44 541.76,186.44 541.76,186.44
             541.76,186.44 541.76,186.59 541.76,186.59
             541.76,186.70 541.88,186.97 541.76,186.97
             541.76,186.97 541.76,187.16 541.76,187.16
             541.55,187.48 541.34,187.82 541.23,188.03
             539.92,190.55 538.50,192.85 536.54,195.06
             533.83,198.32 530.09,200.99 526.47,203.00
             521.90,205.62 517.51,207.22 511.87,209.84
             509.78,210.79 507.42,212.03 506.99,213.62
             506.46,215.29 507.81,217.58 509.33,219.37
             512.61,223.37 516.58,224.86 520.50,227.28
             522.24,228.45 524.12,229.69 525.75,231.06
             527.60,232.45 529.23,233.65 530.97,235.03
             531.08,235.12 531.20,235.29 531.32,235.41
             531.43,235.51 531.51,235.46 531.51,235.56
             531.51,235.56 531.51,235.94 531.51,235.94
             531.51,236.05 531.61,236.02 531.51,236.12
             531.51,236.12 531.51,236.28 531.51,236.28
             531.51,236.39 531.32,236.36 531.32,236.47
             531.22,236.47 531.25,236.66 531.13,236.66
             531.13,236.66 530.97,236.66 530.97,236.66
             530.64,236.77 530.37,237.08 530.07,237.19
             526.90,238.36 523.77,239.51 520.50,240.25
             515.16,241.61 509.34,241.89 504.11,242.41
             500.52,242.83 497.19,243.25 492.95,243.12
             491.42,243.12 489.66,242.95 488.79,243.69
             487.37,244.64 488.01,247.74 488.98,249.97
             490.51,253.85 493.28,255.75 496.20,257.53
             497.62,258.47 499.04,259.38 500.33,260.44
             501.42,261.28 502.51,262.41 503.39,263.47
             503.70,263.80 503.98,264.05 504.30,264.37
             504.30,264.37 504.30,264.56 504.30,264.56
             504.30,264.56 504.30,264.75 504.30,264.75
             504.30,264.75 504.30,264.94 504.30,264.94
             504.30,264.94 504.30,265.09 504.30,265.09
             504.30,265.09 504.30,265.28 504.30,265.28
             504.19,265.40 504.03,265.55 503.93,265.66
             503.82,265.66 503.77,265.66 503.77,265.66
             503.77,265.66 503.58,265.66 503.58,265.66
             503.15,265.77 502.76,265.81 502.33,265.81
             498.52,266.23 494.60,266.61 490.79,266.72
             486.53,266.93 482.28,266.82 477.81,266.72
             473.98,266.51 469.79,266.34 466.84,268.34
             465.31,269.18 464.08,270.67 463.21,272.12
             460.69,276.24 461.21,281.17 461.43,286.00
             461.67,289.68 461.81,293.28 461.05,296.97
             460.73,299.18 460.00,301.33 458.90,303.44
             458.36,304.49 457.75,305.74 457.08,306.69
             457.00,306.90 457.03,307.01 456.93,307.22
             456.93,307.22 456.74,307.22 456.74,307.22
             456.74,307.22 456.63,307.41 456.55,307.41
             456.55,307.50 456.47,307.41 456.36,307.41
             456.36,307.52 456.29,307.59 456.21,307.59
             456.21,307.59 456.02,307.59 456.02,307.59
             456.02,307.59 455.64,307.59 455.64,307.59
             455.64,307.59 455.64,307.41 455.64,307.41
             455.64,307.41 455.49,307.41 455.49,307.41
             455.49,307.29 455.30,307.32 455.30,307.22
             455.30,307.22 455.30,307.06 455.30,307.06
             455.19,306.85 455.03,306.55 454.92,306.34
             453.72,303.18 452.67,299.99 452.24,296.62
             451.80,294.73 451.76,292.66 451.33,290.66
             450.80,288.45 449.56,285.98 447.36,284.72
             446.39,284.07 445.24,283.80 444.14,284.00
             442.61,284.21 441.48,285.96 440.51,287.44
             438.98,289.86 437.98,292.01 437.10,294.44
             436.03,297.15 435.20,300.05 435.29,303.09
             435.20,305.94 435.86,308.96 434.76,311.37
             434.20,312.53 433.29,313.49 432.41,314.44
             432.41,314.44 432.22,314.62 432.22,314.62
             432.11,314.73 432.17,314.66 432.07,314.78
             432.07,314.78 431.88,314.78 431.88,314.78
             431.88,314.78 431.69,314.78 431.69,314.78
             431.69,314.78 431.50,314.78 431.50,314.78
             431.50,314.78 431.16,314.78 431.16,314.78
             431.16,314.78 431.16,314.62 431.16,314.62
             431.07,314.52 430.71,314.36 430.63,314.25
             429.31,313.01 428.10,311.70 427.00,310.12
             425.71,308.12 424.93,305.65 423.06,304.19
             422.20,303.46 420.93,303.03 419.62,302.72
             418.33,302.41 416.89,302.28 416.02,302.91
             414.82,303.64 414.59,305.70 414.59,307.59
             414.47,316.00 415.32,321.91 415.65,328.66
             416.30,338.84 416.30,350.39 414.77,361.44
             413.35,374.17 410.05,386.12 405.58,397.78
             401.44,409.03 395.96,420.15 391.16,431.28
             386.15,442.53 381.62,453.91 377.81,465.69
             373.76,478.20 370.57,491.06 369.37,504.19
             368.15,515.65 368.56,527.21 370.09,538.78
             371.50,550.76 374.08,562.80 376.37,574.78
             378.10,583.83 379.62,592.83 380.16,601.97
             380.49,608.29 380.45,614.64 380.34,621.06
             381.77,621.06 383.12,621.29 384.32,620.87
             387.15,620.02 388.92,616.88 390.45,613.84
             395.01,605.11 398.14,597.50 401.95,589.72
             407.73,577.64 414.90,565.20 422.87,553.53
             432.98,538.29 444.19,524.46 455.64,510.16
             463.48,500.28 471.60,490.15 480.53,481.53
             483.37,478.90 486.08,476.21 489.35,473.59
             490.75,472.54 492.33,471.49 492.76,469.81
             493.11,468.34 492.72,466.45 491.85,465.50
             490.20,463.70 486.73,464.90 483.57,465.84
             475.71,468.16 469.90,469.00 464.12,471.62
             457.70,474.46 451.31,479.55 446.29,485.47
             441.71,490.60 438.28,496.20 436.19,502.41
             434.55,506.83 433.72,511.59 432.41,516.09
             431.98,517.78 431.40,519.36 430.97,520.94
             430.73,521.36 430.69,521.80 430.44,522.22
             430.44,522.32 430.35,522.37 430.25,522.37
             430.25,522.37 430.25,522.56 430.25,522.56
             430.14,522.56 430.18,522.75 430.06,522.75
             429.97,522.75 429.84,522.75 429.72,522.75
             429.61,522.75 429.63,522.86 429.53,522.75
             429.44,522.75 429.47,522.75 429.35,522.75
             429.23,522.75 429.25,522.67 429.16,522.56
             429.16,522.56 429.00,522.56 429.00,522.56
             428.89,522.56 429.00,522.37 429.00,522.37
             428.89,522.17 428.75,522.14 428.63,522.03
             426.99,519.40 425.51,516.78 424.31,513.94
             422.78,510.66 421.77,507.24 421.25,503.66
             419.60,495.05 419.54,485.88 422.15,477.56
             424.21,470.01 428.48,462.99 434.04,457.22
             441.98,448.60 452.70,442.51 463.93,438.84
             475.69,434.63 488.29,433.21 501.05,432.37
             509.34,431.74 517.82,431.32 525.56,428.59
             530.70,427.01 535.36,424.46 540.17,421.94
             544.86,419.31 549.27,416.57 553.30,413.09
             554.29,412.36 555.29,411.58 556.18,410.75
             556.29,410.65 556.26,410.51 556.37,410.41
             556.47,410.41 556.63,410.32 556.74,410.22
             556.84,410.22 556.78,410.14 556.90,410.03
             556.90,410.03 557.08,410.03 557.08,410.03
             557.20,410.03 557.15,410.11 557.27,410.22
             557.27,410.22 557.46,410.22 557.46,410.22
             557.46,410.32 557.62,410.30 557.62,410.41
             557.74,410.41 557.72,410.59 557.80,410.59
             557.80,410.59 557.80,410.75 557.80,410.75
             557.93,410.85 557.99,410.94 557.99,410.94
             557.99,411.05 557.93,411.31 557.80,411.31
             557.80,411.42 557.89,411.36 557.80,411.47
             555.07,417.46 552.23,423.48 549.17,429.47
             544.82,438.07 539.80,446.76 537.82,456.12
             535.99,463.37 536.07,471.06 535.29,478.62
             534.64,486.93 533.13,495.15 529.54,502.59
             525.83,510.59 519.73,517.78 512.21,522.94
             504.38,528.72 494.70,531.92 485.01,533.19
             481.61,533.72 478.51,534.20 475.13,534.09
             472.06,533.98 468.97,533.50 465.93,533.91
             463.65,534.23 461.34,535.10 459.27,536.25
             453.28,539.30 449.31,545.06 445.73,550.84
             439.18,561.04 433.61,570.94 428.81,581.44
             422.71,594.27 417.72,607.82 413.49,621.59
             409.02,636.09 405.47,650.71 402.86,665.53
             400.06,681.76 398.32,700.77 397.64,718.62
             403.16,718.34 408.67,717.93 414.12,717.37
             425.18,716.25 436.08,714.57 446.79,712.37
             468.22,707.99 488.87,701.54 508.55,693.22
             547.92,676.58 583.38,652.51 613.15,622.75
             672.70,563.24 709.53,481.00 709.53,390.19
             709.53,208.56 562.21,61.34 380.47,61.34
             198.73,61.34 51.38,208.56 51.38,390.19 Z
           M 472.94,138.53
           C 472.19,138.62 471.35,138.96 470.62,139.44
             469.31,140.40 468.09,141.29 466.99,142.12
             465.91,142.98 464.73,143.79 463.40,144.84
             458.40,148.94 454.14,154.02 448.26,156.53
             447.84,156.75 447.27,156.87 446.83,157.06
             450.46,157.81 454.04,158.95 457.46,160.50
             464.54,163.54 471.10,168.37 474.56,174.91
             477.83,180.79 478.58,187.83 477.28,194.34
             475.84,203.91 470.19,212.12 463.77,219.37
             454.92,229.67 444.53,238.10 433.85,246.19
             424.80,253.23 415.52,259.99 405.92,266.19
             402.77,268.28 399.47,270.33 396.20,272.31
             393.47,274.01 390.62,275.79 387.91,277.34
             379.42,282.40 370.86,287.03 361.80,291.22
             351.14,296.16 340.02,300.38 328.47,303.09
             320.94,305.01 313.30,306.35 305.58,306.87
             299.69,307.29 293.74,307.40 287.75,306.87
             282.08,306.35 276.41,305.12 271.52,302.37
             265.74,299.44 261.07,294.47 258.55,288.69
             254.52,280.60 254.98,270.74 258.02,262.22
             261.61,250.65 269.67,241.65 278.37,233.25
             291.25,220.30 305.64,209.13 320.90,199.56
             335.92,189.99 351.82,181.67 368.27,174.00
             370.19,173.10 372.10,172.35 374.03,171.47
             372.55,171.18 371.07,170.44 369.71,169.87
             367.97,169.03 366.48,168.53 364.87,166.97
             362.36,164.65 359.11,159.56 358.02,161.56
             357.59,161.97 357.41,163.32 357.30,164.47
             356.87,166.68 356.61,168.31 356.39,170.22
             356.06,172.42 355.85,174.99 354.77,177.41
             353.78,179.71 352.14,181.92 350.08,182.66
             348.33,183.39 346.01,183.20 343.95,182.66
             342.64,182.45 341.53,182.01 340.54,181.37
             338.90,180.32 337.97,178.46 336.22,176.87
             335.13,175.83 333.76,174.72 332.78,174.72
             329.94,174.41 330.60,181.43 330.81,185.53
             331.02,187.94 330.89,189.68 330.25,191.47
             329.70,192.73 328.94,193.98 327.75,194.72
             326.32,195.66 324.42,195.89 322.68,195.78
             321.16,195.57 319.58,195.05 318.18,194.53
             315.77,193.68 313.51,192.87 311.33,191.81
             308.62,190.35 305.98,188.92 302.70,187.87
             301.28,187.33 299.74,186.89 298.54,187.31
             296.68,187.94 295.69,190.32 295.48,192.53
             295.04,195.78 296.00,198.35 296.76,201.19
             297.31,202.98 297.74,205.06 298.20,206.94
             298.51,208.31 298.84,209.62 298.73,211.09
             298.73,212.65 298.21,214.25 297.10,215.41
             296.25,216.55 294.85,217.40 293.32,217.94
             290.05,219.09 286.55,218.86 283.06,218.66
             279.47,218.55 275.78,218.47 272.62,218.28
             270.01,218.16 267.74,217.98 264.14,217.56
             260.66,217.02 255.67,216.18 255.67,218.28
             255.33,219.23 256.14,220.63 256.92,221.91
             258.64,224.94 260.44,226.60 262.17,228.91
             263.36,230.49 264.47,232.46 265.77,234.12
             266.53,235.08 267.23,236.00 268.12,236.84
             268.33,237.15 268.68,237.43 269.02,237.75
             269.02,237.75 269.02,237.91 269.02,237.91
             269.02,237.91 269.06,238.00 269.18,238.09
             269.18,238.09 269.18,238.28 269.18,238.28
             269.18,238.28 269.15,238.52 269.02,238.62
             269.02,238.62 268.84,238.62 268.84,238.62
             268.71,238.72 268.77,238.81 268.65,238.81
             268.65,238.81 268.65,239.00 268.65,239.00
             268.22,239.09 267.82,239.08 267.40,239.19
             264.35,240.35 261.29,241.61 258.02,242.78
             253.12,244.67 247.95,246.75 243.60,248.53
             240.78,249.69 238.28,250.79 234.59,252.69
             232.73,253.63 230.78,254.71 231.00,255.75
             231.00,256.70 232.85,257.72 234.59,258.25
             238.18,259.30 240.85,258.54 243.79,258.44
             245.32,258.44 246.77,258.52 248.29,258.62
             248.60,258.62 248.93,258.62 249.38,258.62
             249.38,258.62 249.62,258.52 249.73,258.62
             249.73,258.62 249.92,258.62 249.92,258.62
             249.92,258.62 249.92,258.97 249.92,258.97
             250.02,258.97 250.10,259.05 250.10,259.16
             250.10,259.16 250.26,259.23 250.26,259.34
             250.26,259.34 250.26,259.53 250.26,259.53
             250.26,259.53 250.21,259.58 250.10,259.69
             250.10,259.69 250.10,259.87 250.10,259.87
             250.00,260.00 250.02,259.97 249.92,260.06
             249.79,260.17 249.65,260.32 249.54,260.44
             246.93,262.63 244.40,264.89 241.44,266.91
             236.53,270.37 230.65,273.30 225.96,275.72
             223.57,276.96 221.50,278.18 218.55,280.59
             216.91,281.95 215.05,283.64 215.49,284.56
             215.81,285.53 218.03,285.95 219.99,286.16
             224.35,286.67 227.22,287.12 230.28,287.44
             232.46,287.65 234.74,287.68 237.47,287.78
             239.96,287.89 242.89,287.94 243.98,288.87
             246.93,290.77 241.49,296.96 236.94,300.94
             231.79,305.69 227.60,307.95 227.03,312.81
             226.69,314.06 226.68,315.42 226.68,316.78
             230.62,316.57 234.66,316.41 238.57,316.41
             243.25,316.41 247.94,316.67 252.42,315.53
             253.49,315.31 254.78,315.03 255.86,314.62
             256.06,314.62 256.19,314.44 256.39,314.44
             256.39,314.44 256.39,314.25 256.39,314.25
             256.39,314.25 256.58,314.25 256.58,314.25
             256.58,314.25 256.92,314.25 256.92,314.25
             257.03,314.25 257.11,314.44 257.11,314.44
             257.20,314.44 257.30,314.62 257.30,314.62
             257.40,314.73 257.48,314.66 257.48,314.78
             257.59,314.78 257.48,314.88 257.48,314.97
             257.59,314.97 257.67,315.03 257.67,315.16
             257.67,315.16 257.67,315.34 257.67,315.34
             257.67,315.34 257.48,315.34 257.48,315.34
             257.48,315.34 257.48,315.53 257.48,315.53
             257.38,315.94 257.20,316.36 257.11,316.78
             256.55,318.37 256.02,319.91 255.48,321.47
             255.05,323.06 254.44,324.84 253.89,326.31
             253.12,328.40 252.28,330.19 250.98,332.81
             250.21,334.29 249.50,336.10 250.26,336.94
             250.70,337.57 252.03,337.59 253.33,337.47
             257.48,337.38 260.20,335.96 263.24,334.59
             266.52,333.02 270.29,331.50 273.68,329.91
             276.83,328.34 279.71,326.96 282.88,325.59
             284.84,324.66 287.02,323.80 289.19,323.06
             289.43,322.94 289.51,322.91 289.72,322.91
             289.72,322.91 289.72,322.72 289.72,322.72
             289.72,322.72 289.91,322.72 289.91,322.72
             289.91,322.72 290.26,322.72 290.26,322.72
             290.36,322.72 290.33,322.91 290.44,322.91
             290.55,322.91 290.52,322.91 290.63,322.91
             290.63,322.91 290.82,322.97 290.82,323.06
             290.82,323.17 290.82,323.25 290.82,323.25
             291.14,324.61 291.43,326.22 291.54,327.59
             291.97,330.53 291.65,333.54 291.54,336.59
             291.54,338.16 291.54,339.65 291.54,341.25
             291.54,342.50 291.65,343.80 291.54,345.03
             294.59,344.73 297.46,344.41 299.98,343.25
             304.11,341.46 307.06,337.54 309.36,333.53
             310.89,330.92 312.27,328.39 313.68,325.97
             314.66,324.39 315.70,322.79 317.12,321.09
             317.89,320.04 318.79,318.94 319.99,318.94
             320.86,318.83 321.88,319.41 322.53,320.03
             323.85,321.62 323.09,323.77 322.87,325.97
             322.65,328.28 322.98,330.74 324.50,331.91
             325.14,332.43 325.99,332.54 326.84,332.97
             328.28,333.48 329.72,334.10 330.81,333.87
             332.54,333.57 333.15,331.14 334.03,329.03
             335.99,324.53 338.49,321.87 340.88,318.41
             342.52,316.19 344.33,313.74 346.29,311.75
             347.93,310.28 349.68,308.88 351.51,307.41
             352.72,306.47 353.77,305.34 355.30,305.25
             356.27,305.16 357.25,305.23 358.02,305.78
             359.67,306.83 360.60,308.67 360.71,310.47
             361.03,312.88 360.20,315.09 359.99,317.50
             359.66,319.40 359.80,321.46 359.80,323.25
             359.91,325.35 359.75,327.27 360.18,329.56
             360.39,331.14 360.86,333.06 361.61,333.69
             363.47,335.68 367.08,328.97 369.71,324.87
             371.99,321.09 373.44,319.19 374.75,316.25
             375.73,314.15 376.43,311.64 377.09,309.22
             377.19,308.81 377.35,308.52 377.47,307.97
             377.47,307.97 377.66,307.89 377.66,307.78
             377.66,307.78 377.66,307.59 377.66,307.59
             377.78,307.48 377.89,307.41 378.00,307.41
             378.00,307.31 378.09,307.41 378.19,307.41
             378.19,307.41 378.37,307.41 378.37,307.41
             378.37,307.41 379.09,307.41 379.09,307.41
             380.92,307.41 382.80,307.57 384.66,307.78
             386.73,307.98 388.83,308.22 390.79,308.84
             393.18,309.58 395.45,310.75 397.64,311.91
             398.39,312.21 399.04,312.67 399.80,313.00
             400.89,308.90 402.05,304.68 403.23,300.56
             404.45,296.27 405.73,291.91 407.02,287.59
             407.23,286.74 407.52,285.93 407.74,285.09
             407.74,285.09 407.74,284.91 407.74,284.91
             407.85,284.91 407.74,284.72 407.74,284.72
             407.84,284.62 407.96,284.69 408.08,284.56
             408.20,284.56 408.15,284.38 408.27,284.37
             408.38,284.37 408.37,284.38 408.46,284.37
             408.59,284.37 408.64,284.38 408.64,284.37
             409.08,284.48 409.63,284.56 410.08,284.56
             412.80,285.11 415.69,285.68 418.18,286.53
             420.03,287.16 421.74,287.88 423.94,288.50
             425.01,288.72 426.20,288.93 426.84,288.50
             428.04,287.96 427.63,285.80 427.19,284.00
             426.75,282.01 426.27,280.55 425.94,278.97
             425.50,277.40 425.24,275.72 425.03,273.94
             426.46,272.98 427.88,272.11 429.53,271.59
             432.68,270.54 436.25,271.16 439.63,271.59
             441.92,271.89 443.90,271.96 446.29,271.75
             447.82,271.65 449.69,271.21 450.80,270.16
             452.09,269.02 452.34,266.83 452.58,264.94
             452.80,263.26 452.88,261.73 452.42,260.06
             452.21,258.69 451.69,257.26 452.24,256.09
             452.58,255.46 453.21,254.89 453.86,254.47
             455.06,253.64 456.65,253.59 458.18,253.59
             460.35,253.59 462.32,254.11 464.49,254.66
             467.45,255.38 470.36,255.96 473.31,256.81
             474.31,257.02 475.40,257.41 476.38,257.72
             476.48,257.82 476.59,257.72 476.72,257.72
             476.72,257.72 476.91,257.72 476.91,257.72
             477.02,257.61 476.99,257.72 477.10,257.72
             477.10,257.61 477.13,257.53 477.28,257.53
             477.28,257.42 477.35,257.47 477.44,257.37
             477.44,257.37 477.33,257.19 477.44,257.19
             478.00,256.35 478.70,255.36 478.91,254.31
             479.23,252.94 478.83,251.34 478.19,249.97
             477.09,247.34 475.08,245.40 473.12,243.50
             471.70,242.15 470.47,240.72 469.72,238.81
             468.86,236.92 468.57,234.63 469.90,233.06
             470.34,232.56 470.91,232.11 471.69,231.78
             473.54,231.06 475.91,231.98 478.00,232.50
             481.36,233.35 484.64,233.39 487.91,233.59
             490.43,233.81 492.98,234.02 495.48,233.59
             497.01,233.39 498.36,232.98 499.80,232.34
             500.66,232.02 501.44,231.45 502.33,230.91
             502.55,230.71 502.65,230.64 502.86,230.53
             502.86,230.43 503.05,230.30 503.05,230.19
             503.18,230.19 503.21,230.10 503.21,230.00
             503.30,230.00 503.21,229.93 503.21,229.81
             503.21,229.81 503.21,229.62 503.21,229.62
             503.21,229.62 503.21,229.47 503.21,229.47
             503.11,229.47 503.21,229.28 503.21,229.28
             503.08,229.16 502.96,229.19 502.86,229.09
             502.65,228.89 502.47,228.77 502.14,228.56
             500.07,226.88 497.92,225.05 495.64,223.69
             492.05,221.49 488.32,220.14 484.85,217.41
             483.84,216.68 482.82,215.65 482.50,214.50
             482.29,213.67 482.37,212.88 482.69,212.16
             483.77,209.93 487.09,209.66 489.70,208.94
             491.87,208.40 493.74,207.65 495.48,206.59
             495.81,206.39 496.09,205.99 496.55,205.69
             496.65,205.57 496.73,205.50 496.73,205.50
             496.73,205.50 496.92,205.50 496.92,205.50
             496.92,205.50 496.92,205.16 496.92,205.16
             496.92,205.16 496.92,204.97 496.92,204.97
             497.03,204.88 496.92,204.89 496.92,204.78
             496.92,204.78 496.92,204.59 496.92,204.59
             496.92,204.59 496.92,204.44 496.92,204.44
             496.81,204.44 496.65,204.25 496.55,204.25
             496.55,204.25 496.36,204.25 496.36,204.25
             496.36,204.25 496.36,204.06 496.36,204.06
             495.90,204.06 495.56,204.00 495.11,203.87
             493.47,203.67 492.01,203.47 490.26,202.62
             489.16,202.11 487.84,201.14 487.73,200.09
             487.51,199.37 487.91,198.50 488.45,197.78
             490.31,195.05 493.76,194.69 496.92,193.62
             502.04,192.04 506.54,188.55 509.90,185.72
             511.32,184.57 512.47,183.52 514.21,181.94
             516.39,179.84 519.41,176.70 518.53,175.97
             518.10,175.12 514.95,175.92 512.21,176.53
             507.87,177.48 505.31,178.07 502.14,179.03
             499.32,179.87 496.09,181.14 492.95,181.03
             491.29,181.14 489.66,180.78 487.91,180.47
             489.23,176.89 490.34,173.44 491.85,169.87
             493.27,166.41 495.18,163.03 496.36,159.78
             496.81,158.51 497.24,157.40 497.45,155.81
             497.55,154.46 497.56,152.57 496.92,152.03
             495.93,150.88 493.52,152.58 491.32,153.84
             486.11,156.80 482.84,157.88 478.91,160.31
             476.74,161.58 474.21,163.50 471.50,163.91
             470.52,164.13 469.54,163.99 468.43,164.09
             469.54,161.04 470.37,157.83 471.69,154.91
             473.00,151.74 474.61,148.63 475.28,145.37
             475.71,143.69 475.87,141.93 475.13,140.16
             474.80,139.42 474.34,138.75 473.69,138.53
             473.58,138.48 473.43,138.46 473.31,138.47
             473.19,138.48 473.06,138.52 472.94,138.53 Z
           M 390.26,139.25
           C 389.06,139.35 388.05,140.76 387.19,142.12
             385.34,145.18 384.26,147.91 383.60,150.97
             383.16,153.07 383.00,155.23 382.69,157.44
             382.35,159.32 381.92,161.28 381.60,163.19
             381.38,164.55 381.06,165.88 380.53,167.34
             380.31,167.85 380.13,168.49 379.81,168.97
             387.38,165.70 395.13,162.76 403.05,160.50
             403.28,158.04 403.38,155.67 402.86,153.28
             402.20,150.67 400.66,147.93 398.92,145.72
             397.62,143.93 396.02,142.55 393.85,140.87
             392.90,140.05 391.68,139.26 390.66,139.22
             390.52,139.21 390.39,139.22 390.26,139.25 Z
           M 432.22,164.09
           C 429.75,164.17 427.29,164.31 424.84,164.62
             406.10,166.19 388.66,173.58 371.87,181.56
             355.74,189.13 340.30,197.13 325.59,206.59
             310.88,215.82 296.84,226.52 284.31,238.81
             276.69,246.41 269.45,254.46 266.30,264.75
             263.88,271.39 263.34,279.12 266.49,285.44
             268.35,289.53 271.70,293.05 275.84,295.16
             279.66,297.26 284.20,298.08 288.66,298.41
             294.12,298.93 299.52,298.83 304.86,298.41
             312.17,297.89 319.32,296.84 326.31,295.16
             337.31,292.63 347.89,288.38 358.02,283.66
             366.75,279.54 375.24,275.14 383.41,270.31
             386.12,268.72 388.96,266.96 391.70,265.28
             394.85,263.29 397.94,261.34 401.08,259.34
             410.58,253.24 419.80,246.73 428.63,239.91
             438.87,232.01 448.66,223.83 457.27,213.97
             462.72,207.86 467.81,201.18 469.00,193.09
             469.88,188.26 469.39,182.90 466.99,178.69
             464.39,173.75 459.20,170.28 453.86,168.06
             447.86,165.31 441.47,164.16 435.01,164.06
             434.08,164.05 433.15,164.07 432.22,164.09 Z" />
</svg>
